STARTFONT 2.1
FONT -GIM-ProggyTinyGIM-Normal-R-SemiCondensed-Sans-12-100-86-86-M-60-ISO10646-1
SIZE 10 86 86
FONTBOUNDINGBOX 12 12 0 -3
COMMENT "Generated by fontforge, http://fontforge.sourceforge.net"
COMMENT "by Tristan Grimmer, reencoded by Glenn Moss"
STARTPROPERTIES 23
FOUNDRY "GIM"
FAMILY_NAME "ProggyTinyGIM"
WEIGHT_NAME "Normal"
SLANT "R"
ADD_STYLE_NAME "Sans"
SETWIDTH_NAME "SemiCondensed"
PIXEL_SIZE 12
POINT_SIZE 10
RESOLUTION_X 86
RESOLUTION_Y 86
SPACING "M"
CHARSET_REGISTRY "ISO10646"
CHARSET_ENCODING "1"
FACE_NAME "ProggyTinyGIM!FaceName"
FONT_VERSION "2011/04/20"
FONT_ASCENT 9
FONT_DESCENT 3
UNDERLINE_THICKNESS 1
X_HEIGHT 5
CAP_HEIGHT 7
DEFAULT_CHAR 57344
NORM_SPACE 6
_GBDFED_INFO "Edited with gbdfed 1.5."
ENDPROPERTIES
CHARS 676
STARTCHAR uni0000
ENCODING 0
SWIDTH 500 0
DWIDTH 6 0
BBX 6 7 0 2
BITMAP
C8
A8
AC
00
A8
A8
6C
ENDCHAR
STARTCHAR uni001B
ENCODING 27
SWIDTH 500 0
DWIDTH 6 0
BBX 5 11 0 -2
BITMAP
F8
A8
88
00
90
A8
48
00
70
88
88
ENDCHAR
STARTCHAR uni001C
ENCODING 28
SWIDTH 500 0
DWIDTH 6 0
BBX 5 7 0 0
BITMAP
F8
28
08
00
90
A8
48
ENDCHAR
STARTCHAR uni001D
ENCODING 29
SWIDTH 500 0
DWIDTH 6 0
BBX 5 8 0 0
BITMAP
70
88
A8
E0
00
90
A8
48
ENDCHAR
STARTCHAR uni001E
ENCODING 30
SWIDTH 500 0
DWIDTH 6 0
BBX 5 8 0 0
BITMAP
F8
28
68
90
00
90
A8
48
ENDCHAR
STARTCHAR uni001F
ENCODING 31
SWIDTH 500 0
DWIDTH 6 0
BBX 5 8 0 0
BITMAP
78
80
80
78
00
90
A8
48
ENDCHAR
STARTCHAR char32
ENCODING 32
SWIDTH 500 0
DWIDTH 6 0
BBX 1 1 0 0
BITMAP
00
ENDCHAR
STARTCHAR exclam
ENCODING 33
SWIDTH 313 0
DWIDTH 6 0
BBX 1 7 2 0
BITMAP
80
80
80
80
80
00
80
ENDCHAR
STARTCHAR quotedbl
ENCODING 34
SWIDTH 313 0
DWIDTH 6 0
BBX 3 3 1 5
BITMAP
A0
A0
A0
ENDCHAR
STARTCHAR numbersign
ENCODING 35
SWIDTH 313 0
DWIDTH 6 0
BBX 5 6 0 0
BITMAP
50
F8
50
50
F8
50
ENDCHAR
STARTCHAR dollar
ENCODING 36
SWIDTH 313 0
DWIDTH 6 0
BBX 5 7 0 0
BITMAP
20
78
A0
70
28
F0
20
ENDCHAR
STARTCHAR percent
ENCODING 37
SWIDTH 313 0
DWIDTH 6 0
BBX 6 6 0 0
BITMAP
44
A8
50
28
54
88
ENDCHAR
STARTCHAR ampersand
ENCODING 38
SWIDTH 313 0
DWIDTH 6 0
BBX 6 7 0 0
BITMAP
60
90
90
60
94
88
74
ENDCHAR
STARTCHAR quotesingle
ENCODING 39
SWIDTH 313 0
DWIDTH 6 0
BBX 1 3 2 5
BITMAP
80
80
80
ENDCHAR
STARTCHAR parenleft
ENCODING 40
SWIDTH 313 0
DWIDTH 6 0
BBX 3 9 1 -1
BITMAP
20
40
80
80
80
80
80
40
20
ENDCHAR
STARTCHAR parenright
ENCODING 41
SWIDTH 313 0
DWIDTH 6 0
BBX 3 9 1 -1
BITMAP
80
40
20
20
20
20
20
40
80
ENDCHAR
STARTCHAR asterisk
ENCODING 42
SWIDTH 313 0
DWIDTH 6 0
BBX 5 5 0 1
BITMAP
20
A8
70
A8
20
ENDCHAR
STARTCHAR plus
ENCODING 43
SWIDTH 313 0
DWIDTH 6 0
BBX 5 5 0 1
BITMAP
20
20
F8
20
20
ENDCHAR
STARTCHAR comma
ENCODING 44
SWIDTH 313 0
DWIDTH 6 0
BBX 2 2 1 -1
BITMAP
40
80
ENDCHAR
STARTCHAR hyphen
ENCODING 45
SWIDTH 313 0
DWIDTH 6 0
BBX 5 1 0 3
BITMAP
F8
ENDCHAR
STARTCHAR period
ENCODING 46
SWIDTH 313 0
DWIDTH 6 0
BBX 1 1 2 0
BITMAP
80
ENDCHAR
STARTCHAR slash
ENCODING 47
SWIDTH 313 0
DWIDTH 6 0
BBX 5 9 0 -1
BITMAP
08
08
10
10
20
20
40
40
80
ENDCHAR
STARTCHAR zero
ENCODING 48
SWIDTH 313 0
DWIDTH 6 0
BBX 5 7 0 0
BITMAP
70
88
88
A8
88
88
70
ENDCHAR
STARTCHAR one
ENCODING 49
SWIDTH 313 0
DWIDTH 6 0
BBX 3 7 1 0
BITMAP
40
C0
40
40
40
40
E0
ENDCHAR
STARTCHAR two
ENCODING 50
SWIDTH 313 0
DWIDTH 6 0
BBX 5 7 0 0
BITMAP
70
88
08
30
40
80
F8
ENDCHAR
STARTCHAR three
ENCODING 51
SWIDTH 313 0
DWIDTH 6 0
BBX 5 7 0 0
BITMAP
70
88
08
30
08
88
70
ENDCHAR
STARTCHAR four
ENCODING 52
SWIDTH 313 0
DWIDTH 6 0
BBX 5 7 0 0
BITMAP
10
30
50
90
F8
10
10
ENDCHAR
STARTCHAR five
ENCODING 53
SWIDTH 313 0
DWIDTH 6 0
BBX 5 7 0 0
BITMAP
F8
80
80
F0
08
88
70
ENDCHAR
STARTCHAR six
ENCODING 54
SWIDTH 313 0
DWIDTH 6 0
BBX 5 7 0 0
BITMAP
30
40
80
F0
88
88
70
ENDCHAR
STARTCHAR seven
ENCODING 55
SWIDTH 313 0
DWIDTH 6 0
BBX 5 7 0 0
BITMAP
F8
08
10
10
20
20
40
ENDCHAR
STARTCHAR eight
ENCODING 56
SWIDTH 313 0
DWIDTH 6 0
BBX 5 7 0 0
BITMAP
70
88
88
70
88
88
70
ENDCHAR
STARTCHAR nine
ENCODING 57
SWIDTH 313 0
DWIDTH 6 0
BBX 5 7 0 0
BITMAP
70
88
88
78
08
10
60
ENDCHAR
STARTCHAR colon
ENCODING 58
SWIDTH 313 0
DWIDTH 6 0
BBX 1 4 2 1
BITMAP
80
00
00
80
ENDCHAR
STARTCHAR semicolon
ENCODING 59
SWIDTH 313 0
DWIDTH 6 0
BBX 2 5 1 0
BITMAP
40
00
00
40
80
ENDCHAR
STARTCHAR less
ENCODING 60
SWIDTH 313 0
DWIDTH 6 0
BBX 5 5 0 1
BITMAP
08
30
C0
30
08
ENDCHAR
STARTCHAR equal
ENCODING 61
SWIDTH 313 0
DWIDTH 6 0
BBX 5 3 0 2
BITMAP
F8
00
F8
ENDCHAR
STARTCHAR greater
ENCODING 62
SWIDTH 313 0
DWIDTH 6 0
BBX 5 5 0 1
BITMAP
80
60
18
60
80
ENDCHAR
STARTCHAR question
ENCODING 63
SWIDTH 313 0
DWIDTH 6 0
BBX 5 7 0 0
BITMAP
70
88
08
10
20
00
20
ENDCHAR
STARTCHAR at
ENCODING 64
SWIDTH 313 0
DWIDTH 6 0
BBX 6 7 0 0
BITMAP
78
84
B4
B4
BC
80
7C
ENDCHAR
STARTCHAR A
ENCODING 65
SWIDTH 313 0
DWIDTH 6 0
BBX 5 7 0 0
BITMAP
20
20
50
50
70
88
88
ENDCHAR
STARTCHAR B
ENCODING 66
SWIDTH 313 0
DWIDTH 6 0
BBX 5 7 0 0
BITMAP
F0
88
88
F0
88
88
F0
ENDCHAR
STARTCHAR C
ENCODING 67
SWIDTH 313 0
DWIDTH 6 0
BBX 5 7 0 0
BITMAP
70
88
80
80
80
88
70
ENDCHAR
STARTCHAR D
ENCODING 68
SWIDTH 313 0
DWIDTH 6 0
BBX 5 7 0 0
BITMAP
E0
90
88
88
88
90
E0
ENDCHAR
STARTCHAR E
ENCODING 69
SWIDTH 313 0
DWIDTH 6 0
BBX 5 7 0 0
BITMAP
F8
80
80
F0
80
80
F8
ENDCHAR
STARTCHAR F
ENCODING 70
SWIDTH 313 0
DWIDTH 6 0
BBX 5 7 0 0
BITMAP
F8
80
80
F0
80
80
80
ENDCHAR
STARTCHAR G
ENCODING 71
SWIDTH 313 0
DWIDTH 6 0
BBX 5 7 0 0
BITMAP
70
88
80
98
88
88
78
ENDCHAR
STARTCHAR H
ENCODING 72
SWIDTH 313 0
DWIDTH 6 0
BBX 5 7 0 0
BITMAP
88
88
88
F8
88
88
88
ENDCHAR
STARTCHAR I
ENCODING 73
SWIDTH 313 0
DWIDTH 6 0
BBX 3 7 1 0
BITMAP
E0
40
40
40
40
40
E0
ENDCHAR
STARTCHAR J
ENCODING 74
SWIDTH 313 0
DWIDTH 6 0
BBX 5 7 0 0
BITMAP
38
08
08
08
08
08
F0
ENDCHAR
STARTCHAR K
ENCODING 75
SWIDTH 313 0
DWIDTH 6 0
BBX 5 7 0 0
BITMAP
88
90
A0
C0
A0
90
88
ENDCHAR
STARTCHAR L
ENCODING 76
SWIDTH 313 0
DWIDTH 6 0
BBX 5 7 0 0
BITMAP
80
80
80
80
80
80
F8
ENDCHAR
STARTCHAR M
ENCODING 77
SWIDTH 313 0
DWIDTH 6 0
BBX 5 7 0 0
BITMAP
88
88
D8
D8
A8
A8
88
ENDCHAR
STARTCHAR N
ENCODING 78
SWIDTH 313 0
DWIDTH 6 0
BBX 5 7 0 0
BITMAP
C8
C8
A8
A8
A8
98
98
ENDCHAR
STARTCHAR O
ENCODING 79
SWIDTH 313 0
DWIDTH 6 0
BBX 5 7 0 0
BITMAP
70
88
88
88
88
88
70
ENDCHAR
STARTCHAR P
ENCODING 80
SWIDTH 313 0
DWIDTH 6 0
BBX 5 7 0 0
BITMAP
F0
88
88
F0
80
80
80
ENDCHAR
STARTCHAR Q
ENCODING 81
SWIDTH 313 0
DWIDTH 6 0
BBX 5 7 0 0
BITMAP
70
88
88
88
88
98
78
ENDCHAR
STARTCHAR R
ENCODING 82
SWIDTH 313 0
DWIDTH 6 0
BBX 5 7 0 0
BITMAP
F0
88
88
F0
88
88
88
ENDCHAR
STARTCHAR S
ENCODING 83
SWIDTH 313 0
DWIDTH 6 0
BBX 5 7 0 0
BITMAP
70
88
80
70
08
88
70
ENDCHAR
STARTCHAR T
ENCODING 84
SWIDTH 313 0
DWIDTH 6 0
BBX 5 7 0 0
BITMAP
F8
20
20
20
20
20
20
ENDCHAR
STARTCHAR U
ENCODING 85
SWIDTH 313 0
DWIDTH 6 0
BBX 5 7 0 0
BITMAP
88
88
88
88
88
88
70
ENDCHAR
STARTCHAR V
ENCODING 86
SWIDTH 313 0
DWIDTH 6 0
BBX 5 7 0 0
BITMAP
88
88
88
50
50
20
20
ENDCHAR
STARTCHAR W
ENCODING 87
SWIDTH 313 0
DWIDTH 6 0
BBX 5 7 0 0
BITMAP
88
A8
A8
A8
50
50
50
ENDCHAR
STARTCHAR X
ENCODING 88
SWIDTH 313 0
DWIDTH 6 0
BBX 5 7 0 0
BITMAP
88
88
50
20
50
88
88
ENDCHAR
STARTCHAR Y
ENCODING 89
SWIDTH 313 0
DWIDTH 6 0
BBX 5 7 0 0
BITMAP
88
88
88
70
20
20
20
ENDCHAR
STARTCHAR Z
ENCODING 90
SWIDTH 313 0
DWIDTH 6 0
BBX 5 7 0 0
BITMAP
F8
08
10
20
40
80
F8
ENDCHAR
STARTCHAR bracketleft
ENCODING 91
SWIDTH 313 0
DWIDTH 6 0
BBX 3 9 1 -1
BITMAP
E0
80
80
80
80
80
80
80
E0
ENDCHAR
STARTCHAR backslash
ENCODING 92
SWIDTH 313 0
DWIDTH 6 0
BBX 5 9 0 -1
BITMAP
80
80
40
40
20
20
10
10
08
ENDCHAR
STARTCHAR bracketright
ENCODING 93
SWIDTH 313 0
DWIDTH 6 0
BBX 3 9 1 -1
BITMAP
E0
20
20
20
20
20
20
20
E0
ENDCHAR
STARTCHAR asciicircum
ENCODING 94
SWIDTH 313 0
DWIDTH 6 0
BBX 5 3 0 4
BITMAP
20
50
88
ENDCHAR
STARTCHAR underscore
ENCODING 95
SWIDTH 313 0
DWIDTH 6 0
BBX 6 1 0 -1
BITMAP
FC
ENDCHAR
STARTCHAR grave
ENCODING 96
SWIDTH 313 0
DWIDTH 6 0
BBX 2 2 2 5
BITMAP
80
40
ENDCHAR
STARTCHAR a
ENCODING 97
SWIDTH 313 0
DWIDTH 6 0
BBX 5 5 0 0
BITMAP
70
08
78
88
78
ENDCHAR
STARTCHAR b
ENCODING 98
SWIDTH 313 0
DWIDTH 6 0
BBX 5 8 0 0
BITMAP
80
80
80
F0
88
88
88
F0
ENDCHAR
STARTCHAR c
ENCODING 99
SWIDTH 313 0
DWIDTH 6 0
BBX 5 5 0 0
BITMAP
78
80
80
80
78
ENDCHAR
STARTCHAR d
ENCODING 100
SWIDTH 313 0
DWIDTH 6 0
BBX 5 8 0 0
BITMAP
08
08
08
78
88
88
88
78
ENDCHAR
STARTCHAR e
ENCODING 101
SWIDTH 313 0
DWIDTH 6 0
BBX 5 5 0 0
BITMAP
70
88
F8
80
78
ENDCHAR
STARTCHAR f
ENCODING 102
SWIDTH 313 0
DWIDTH 6 0
BBX 5 8 0 0
BITMAP
38
40
40
F0
40
40
40
40
ENDCHAR
STARTCHAR g
ENCODING 103
SWIDTH 313 0
DWIDTH 6 0
BBX 5 7 0 -2
BITMAP
70
88
88
88
78
08
70
ENDCHAR
STARTCHAR h
ENCODING 104
SWIDTH 313 0
DWIDTH 6 0
BBX 5 8 0 0
BITMAP
80
80
80
F0
88
88
88
88
ENDCHAR
STARTCHAR i
ENCODING 105
SWIDTH 313 0
DWIDTH 6 0
BBX 2 7 1 0
BITMAP
40
00
C0
40
40
40
40
ENDCHAR
STARTCHAR j
ENCODING 106
SWIDTH 313 0
DWIDTH 6 0
BBX 4 9 0 -2
BITMAP
10
00
30
10
10
10
10
10
E0
ENDCHAR
STARTCHAR k
ENCODING 107
SWIDTH 313 0
DWIDTH 6 0
BBX 4 8 1 0
BITMAP
80
80
80
90
A0
C0
A0
90
ENDCHAR
STARTCHAR l
ENCODING 108
SWIDTH 313 0
DWIDTH 6 0
BBX 2 8 1 0
BITMAP
C0
40
40
40
40
40
40
40
ENDCHAR
STARTCHAR m
ENCODING 109
SWIDTH 313 0
DWIDTH 6 0
BBX 5 5 0 0
BITMAP
D0
A8
A8
A8
A8
ENDCHAR
STARTCHAR n
ENCODING 110
SWIDTH 313 0
DWIDTH 6 0
BBX 5 5 0 0
BITMAP
F0
88
88
88
88
ENDCHAR
STARTCHAR o
ENCODING 111
SWIDTH 313 0
DWIDTH 6 0
BBX 5 5 0 0
BITMAP
70
88
88
88
70
ENDCHAR
STARTCHAR p
ENCODING 112
SWIDTH 313 0
DWIDTH 6 0
BBX 5 7 0 -2
BITMAP
F0
88
88
88
F0
80
80
ENDCHAR
STARTCHAR q
ENCODING 113
SWIDTH 313 0
DWIDTH 6 0
BBX 5 7 0 -2
BITMAP
78
88
88
88
78
08
08
ENDCHAR
STARTCHAR r
ENCODING 114
SWIDTH 313 0
DWIDTH 6 0
BBX 5 5 0 0
BITMAP
B0
C8
80
80
80
ENDCHAR
STARTCHAR s
ENCODING 115
SWIDTH 313 0
DWIDTH 6 0
BBX 5 5 0 0
BITMAP
78
80
70
08
F0
ENDCHAR
STARTCHAR t
ENCODING 116
SWIDTH 313 0
DWIDTH 6 0
BBX 4 7 1 0
BITMAP
80
80
E0
80
80
80
70
ENDCHAR
STARTCHAR u
ENCODING 117
SWIDTH 313 0
DWIDTH 6 0
BBX 5 5 0 0
BITMAP
88
88
88
88
78
ENDCHAR
STARTCHAR v
ENCODING 118
SWIDTH 313 0
DWIDTH 6 0
BBX 5 5 0 0
BITMAP
88
88
50
50
20
ENDCHAR
STARTCHAR w
ENCODING 119
SWIDTH 313 0
DWIDTH 6 0
BBX 5 5 0 0
BITMAP
88
A8
A8
50
50
ENDCHAR
STARTCHAR x
ENCODING 120
SWIDTH 313 0
DWIDTH 6 0
BBX 5 5 0 0
BITMAP
88
50
20
50
88
ENDCHAR
STARTCHAR y
ENCODING 121
SWIDTH 313 0
DWIDTH 6 0
BBX 5 7 0 -2
BITMAP
88
88
88
88
78
08
70
ENDCHAR
STARTCHAR z
ENCODING 122
SWIDTH 313 0
DWIDTH 6 0
BBX 5 5 0 0
BITMAP
F8
10
20
40
F8
ENDCHAR
STARTCHAR braceleft
ENCODING 123
SWIDTH 313 0
DWIDTH 6 0
BBX 3 9 1 -1
BITMAP
20
40
40
40
80
40
40
40
20
ENDCHAR
STARTCHAR bar
ENCODING 124
SWIDTH 313 0
DWIDTH 6 0
BBX 1 9 2 -1
BITMAP
80
80
80
80
80
80
80
80
80
ENDCHAR
STARTCHAR braceright
ENCODING 125
SWIDTH 313 0
DWIDTH 6 0
BBX 3 9 1 -1
BITMAP
80
40
40
40
20
40
40
40
80
ENDCHAR
STARTCHAR asciitilde
ENCODING 126
SWIDTH 313 0
DWIDTH 6 0
BBX 6 2 0 2
BITMAP
64
98
ENDCHAR
STARTCHAR uni00A0
ENCODING 160
SWIDTH 500 0
DWIDTH 6 0
BBX 1 1 0 0
BITMAP
00
ENDCHAR
STARTCHAR exclamdown
ENCODING 161
SWIDTH 313 0
DWIDTH 6 0
BBX 1 7 2 0
BITMAP
80
00
80
80
80
80
80
ENDCHAR
STARTCHAR cent
ENCODING 162
SWIDTH 313 0
DWIDTH 6 0
BBX 4 6 1 0
BITMAP
20
70
A0
A0
70
20
ENDCHAR
STARTCHAR sterling
ENCODING 163
SWIDTH 313 0
DWIDTH 6 0
BBX 5 8 0 0
BITMAP
30
40
40
E0
40
40
80
F8
ENDCHAR
STARTCHAR currency
ENCODING 164
SWIDTH 313 0
DWIDTH 6 0
BBX 6 6 0 0
BITMAP
84
78
48
48
78
84
ENDCHAR
STARTCHAR yen
ENCODING 165
SWIDTH 313 0
DWIDTH 6 0
BBX 5 7 0 0
BITMAP
88
88
70
20
F8
20
20
ENDCHAR
STARTCHAR brokenbar
ENCODING 166
SWIDTH 313 0
DWIDTH 6 0
BBX 1 9 2 -1
BITMAP
80
80
80
80
00
80
80
80
80
ENDCHAR
STARTCHAR section
ENCODING 167
SWIDTH 313 0
DWIDTH 6 0
BBX 5 10 0 -2
BITMAP
18
20
20
70
88
88
70
20
20
C0
ENDCHAR
STARTCHAR dieresis
ENCODING 168
SWIDTH 313 0
DWIDTH 6 0
BBX 3 1 1 6
BITMAP
A0
ENDCHAR
STARTCHAR copyright
ENCODING 169
SWIDTH 313 0
DWIDTH 6 0
BBX 6 7 0 0
BITMAP
78
84
B4
A4
B4
84
78
ENDCHAR
STARTCHAR ordfeminine
ENCODING 170
SWIDTH 313 0
DWIDTH 6 0
BBX 3 5 1 3
BITMAP
40
20
60
A0
60
ENDCHAR
STARTCHAR guillemotleft
ENCODING 171
SWIDTH 313 0
DWIDTH 6 0
BBX 6 5 0 0
BITMAP
24
48
90
48
24
ENDCHAR
STARTCHAR logicalnot
ENCODING 172
SWIDTH 313 0
DWIDTH 6 0
BBX 4 4 1 0
BITMAP
F0
10
10
10
ENDCHAR
STARTCHAR uni00AD
ENCODING 173
SWIDTH 313 0
DWIDTH 4 0
BBX 1 1 0 0
BITMAP
00
ENDCHAR
STARTCHAR registered
ENCODING 174
SWIDTH 313 0
DWIDTH 6 0
BBX 6 7 0 0
BITMAP
78
84
94
A4
A4
84
78
ENDCHAR
STARTCHAR macron
ENCODING 175
SWIDTH 313 0
DWIDTH 6 0
BBX 5 1 0 6
BITMAP
F8
ENDCHAR
STARTCHAR degree
ENCODING 176
SWIDTH 313 0
DWIDTH 6 0
BBX 3 3 1 4
BITMAP
40
A0
40
ENDCHAR
STARTCHAR plusminus
ENCODING 177
SWIDTH 313 0
DWIDTH 6 0
BBX 5 6 0 0
BITMAP
20
20
F8
20
20
F8
ENDCHAR
STARTCHAR uni00B2
ENCODING 178
SWIDTH 313 0
DWIDTH 6 0
BBX 3 5 1 3
BITMAP
C0
20
40
80
E0
ENDCHAR
STARTCHAR uni00B3
ENCODING 179
SWIDTH 313 0
DWIDTH 6 0
BBX 3 5 1 3
BITMAP
C0
20
C0
20
C0
ENDCHAR
STARTCHAR acute
ENCODING 180
SWIDTH 313 0
DWIDTH 6 0
BBX 2 2 2 6
BITMAP
40
80
ENDCHAR
STARTCHAR uni00B5
ENCODING 181
SWIDTH 313 0
DWIDTH 6 0
BBX 6 7 0 -2
BITMAP
48
48
48
48
74
40
80
ENDCHAR
STARTCHAR paragraph
ENCODING 182
SWIDTH 313 0
DWIDTH 6 0
BBX 6 9 0 -2
BITMAP
7C
E8
E8
68
28
28
28
28
28
ENDCHAR
STARTCHAR periodcentered
ENCODING 183
SWIDTH 313 0
DWIDTH 6 0
BBX 1 1 2 3
BITMAP
80
ENDCHAR
STARTCHAR cedilla
ENCODING 184
SWIDTH 313 0
DWIDTH 6 0
BBX 2 3 2 -2
BITMAP
C0
40
80
ENDCHAR
STARTCHAR uni00B9
ENCODING 185
SWIDTH 313 0
DWIDTH 6 0
BBX 3 5 1 3
BITMAP
40
C0
40
40
E0
ENDCHAR
STARTCHAR ordmasculine
ENCODING 186
SWIDTH 313 0
DWIDTH 6 0
BBX 3 4 1 4
BITMAP
40
A0
A0
40
ENDCHAR
STARTCHAR guillemotright
ENCODING 187
SWIDTH 313 0
DWIDTH 6 0
BBX 6 5 0 0
BITMAP
90
48
24
48
90
ENDCHAR
STARTCHAR onequarter
ENCODING 188
SWIDTH 313 0
DWIDTH 6 0
BBX 6 9 0 -1
BITMAP
08
88
90
90
24
2C
5C
44
80
ENDCHAR
STARTCHAR onehalf
ENCODING 189
SWIDTH 313 0
DWIDTH 6 0
BBX 6 9 0 -1
BITMAP
08
88
90
90
2C
24
48
4C
80
ENDCHAR
STARTCHAR threequarters
ENCODING 190
SWIDTH 313 0
DWIDTH 6 0
BBX 6 9 0 -1
BITMAP
88
48
D0
50
A4
2C
5C
44
80
ENDCHAR
STARTCHAR questiondown
ENCODING 191
SWIDTH 313 0
DWIDTH 6 0
BBX 5 7 0 0
BITMAP
20
00
20
10
08
88
70
ENDCHAR
STARTCHAR Agrave
ENCODING 192
SWIDTH 313 0
DWIDTH 6 0
BBX 5 8 0 0
BITMAP
40
20
00
20
50
70
88
88
ENDCHAR
STARTCHAR Aacute
ENCODING 193
SWIDTH 313 0
DWIDTH 6 0
BBX 5 8 0 0
BITMAP
20
40
00
20
50
70
88
88
ENDCHAR
STARTCHAR Acircumflex
ENCODING 194
SWIDTH 313 0
DWIDTH 6 0
BBX 5 8 0 0
BITMAP
20
50
00
20
50
70
88
88
ENDCHAR
STARTCHAR Atilde
ENCODING 195
SWIDTH 313 0
DWIDTH 6 0
BBX 5 8 0 0
BITMAP
28
50
00
20
50
70
88
88
ENDCHAR
STARTCHAR Adieresis
ENCODING 196
SWIDTH 313 0
DWIDTH 6 0
BBX 5 7 0 0
BITMAP
50
00
20
50
70
88
88
ENDCHAR
STARTCHAR Aring
ENCODING 197
SWIDTH 313 0
DWIDTH 6 0
BBX 5 8 0 0
BITMAP
20
50
20
20
50
70
88
88
ENDCHAR
STARTCHAR AE
ENCODING 198
SWIDTH 313 0
DWIDTH 6 0
BBX 6 7 0 0
BITMAP
3C
50
50
78
90
90
9C
ENDCHAR
STARTCHAR Ccedilla
ENCODING 199
SWIDTH 313 0
DWIDTH 6 0
BBX 5 9 0 -2
BITMAP
70
88
80
80
80
88
70
20
40
ENDCHAR
STARTCHAR Egrave
ENCODING 200
SWIDTH 313 0
DWIDTH 6 0
BBX 5 8 0 0
BITMAP
40
20
00
F8
80
F0
80
F8
ENDCHAR
STARTCHAR Eacute
ENCODING 201
SWIDTH 313 0
DWIDTH 6 0
BBX 5 8 0 0
BITMAP
20
40
00
F8
80
F0
80
F8
ENDCHAR
STARTCHAR Ecircumflex
ENCODING 202
SWIDTH 313 0
DWIDTH 6 0
BBX 5 8 0 0
BITMAP
20
50
00
F8
80
F0
80
F8
ENDCHAR
STARTCHAR Edieresis
ENCODING 203
SWIDTH 313 0
DWIDTH 6 0
BBX 5 7 0 0
BITMAP
50
00
F8
80
F0
80
F8
ENDCHAR
STARTCHAR Igrave
ENCODING 204
SWIDTH 313 0
DWIDTH 6 0
BBX 3 8 1 0
BITMAP
80
40
00
E0
40
40
40
E0
ENDCHAR
STARTCHAR Iacute
ENCODING 205
SWIDTH 313 0
DWIDTH 6 0
BBX 3 8 1 0
BITMAP
40
80
00
E0
40
40
40
E0
ENDCHAR
STARTCHAR Icircumflex
ENCODING 206
SWIDTH 313 0
DWIDTH 6 0
BBX 3 8 1 0
BITMAP
40
A0
00
E0
40
40
40
E0
ENDCHAR
STARTCHAR Idieresis
ENCODING 207
SWIDTH 313 0
DWIDTH 6 0
BBX 3 7 1 0
BITMAP
A0
00
E0
40
40
40
E0
ENDCHAR
STARTCHAR Eth
ENCODING 208
SWIDTH 313 0
DWIDTH 6 0
BBX 6 7 0 0
BITMAP
70
48
44
F4
44
48
70
ENDCHAR
STARTCHAR Ntilde
ENCODING 209
SWIDTH 313 0
DWIDTH 6 0
BBX 5 8 0 0
BITMAP
28
50
00
C8
A8
A8
98
98
ENDCHAR
STARTCHAR Ograve
ENCODING 210
SWIDTH 313 0
DWIDTH 6 0
BBX 5 8 0 0
BITMAP
40
20
00
70
88
88
88
70
ENDCHAR
STARTCHAR Oacute
ENCODING 211
SWIDTH 313 0
DWIDTH 6 0
BBX 5 8 0 0
BITMAP
20
40
00
70
88
88
88
70
ENDCHAR
STARTCHAR Ocircumflex
ENCODING 212
SWIDTH 313 0
DWIDTH 6 0
BBX 5 8 0 0
BITMAP
20
50
00
70
88
88
88
70
ENDCHAR
STARTCHAR Otilde
ENCODING 213
SWIDTH 313 0
DWIDTH 6 0
BBX 5 8 0 0
BITMAP
28
50
00
70
88
88
88
70
ENDCHAR
STARTCHAR Odieresis
ENCODING 214
SWIDTH 313 0
DWIDTH 6 0
BBX 5 7 0 0
BITMAP
50
00
70
88
88
88
70
ENDCHAR
STARTCHAR multiply
ENCODING 215
SWIDTH 313 0
DWIDTH 6 0
BBX 5 5 0 1
BITMAP
88
50
20
50
88
ENDCHAR
STARTCHAR Oslash
ENCODING 216
SWIDTH 313 0
DWIDTH 6 0
BBX 5 9 0 -1
BITMAP
08
78
98
98
A8
C8
C8
F0
80
ENDCHAR
STARTCHAR Ugrave
ENCODING 217
SWIDTH 313 0
DWIDTH 6 0
BBX 5 8 0 0
BITMAP
40
20
00
88
88
88
88
70
ENDCHAR
STARTCHAR Uacute
ENCODING 218
SWIDTH 313 0
DWIDTH 6 0
BBX 5 8 0 0
BITMAP
20
40
00
88
88
88
88
70
ENDCHAR
STARTCHAR Ucircumflex
ENCODING 219
SWIDTH 313 0
DWIDTH 6 0
BBX 5 8 0 0
BITMAP
20
50
00
88
88
88
88
70
ENDCHAR
STARTCHAR Udieresis
ENCODING 220
SWIDTH 313 0
DWIDTH 6 0
BBX 5 7 0 0
BITMAP
50
00
88
88
88
88
70
ENDCHAR
STARTCHAR Yacute
ENCODING 221
SWIDTH 313 0
DWIDTH 6 0
BBX 5 8 0 0
BITMAP
10
20
88
88
88
70
20
20
ENDCHAR
STARTCHAR Thorn
ENCODING 222
SWIDTH 313 0
DWIDTH 6 0
BBX 4 8 1 -1
BITMAP
80
80
E0
90
90
E0
80
80
ENDCHAR
STARTCHAR germandbls
ENCODING 223
SWIDTH 313 0
DWIDTH 6 0
BBX 5 7 0 0
BITMAP
60
90
90
A0
90
88
B0
ENDCHAR
STARTCHAR agrave
ENCODING 224
SWIDTH 313 0
DWIDTH 6 0
BBX 5 8 0 0
BITMAP
40
20
00
70
08
78
88
78
ENDCHAR
STARTCHAR aacute
ENCODING 225
SWIDTH 313 0
DWIDTH 6 0
BBX 5 8 0 0
BITMAP
20
40
00
70
08
78
88
78
ENDCHAR
STARTCHAR acircumflex
ENCODING 226
SWIDTH 313 0
DWIDTH 6 0
BBX 5 8 0 0
BITMAP
20
50
00
70
08
78
88
78
ENDCHAR
STARTCHAR atilde
ENCODING 227
SWIDTH 313 0
DWIDTH 6 0
BBX 5 8 0 0
BITMAP
28
50
00
70
08
78
88
78
ENDCHAR
STARTCHAR adieresis
ENCODING 228
SWIDTH 313 0
DWIDTH 6 0
BBX 5 7 0 0
BITMAP
50
00
70
08
78
88
78
ENDCHAR
STARTCHAR aring
ENCODING 229
SWIDTH 313 0
DWIDTH 6 0
BBX 5 8 0 0
BITMAP
20
50
20
70
08
78
88
78
ENDCHAR
STARTCHAR ae
ENCODING 230
SWIDTH 313 0
DWIDTH 6 0
BBX 6 5 0 0
BITMAP
68
14
78
90
6C
ENDCHAR
STARTCHAR ccedilla
ENCODING 231
SWIDTH 313 0
DWIDTH 6 0
BBX 5 7 0 -2
BITMAP
78
80
80
80
78
20
40
ENDCHAR
STARTCHAR egrave
ENCODING 232
SWIDTH 313 0
DWIDTH 6 0
BBX 5 8 0 0
BITMAP
40
20
00
70
88
F8
80
78
ENDCHAR
STARTCHAR eacute
ENCODING 233
SWIDTH 313 0
DWIDTH 6 0
BBX 5 8 0 0
BITMAP
20
40
00
70
88
F8
80
78
ENDCHAR
STARTCHAR ecircumflex
ENCODING 234
SWIDTH 313 0
DWIDTH 6 0
BBX 5 8 0 0
BITMAP
20
50
00
70
88
F8
80
78
ENDCHAR
STARTCHAR edieresis
ENCODING 235
SWIDTH 313 0
DWIDTH 6 0
BBX 5 7 0 0
BITMAP
50
00
70
88
F8
80
78
ENDCHAR
STARTCHAR igrave
ENCODING 236
SWIDTH 313 0
DWIDTH 6 0
BBX 2 8 1 0
BITMAP
80
40
00
C0
40
40
40
40
ENDCHAR
STARTCHAR iacute
ENCODING 237
SWIDTH 313 0
DWIDTH 6 0
BBX 2 8 1 0
BITMAP
40
80
00
C0
40
40
40
40
ENDCHAR
STARTCHAR icircumflex
ENCODING 238
SWIDTH 313 0
DWIDTH 6 0
BBX 3 8 1 0
BITMAP
40
A0
00
C0
40
40
40
40
ENDCHAR
STARTCHAR idieresis
ENCODING 239
SWIDTH 313 0
DWIDTH 6 0
BBX 3 7 1 0
BITMAP
A0
00
C0
40
40
40
40
ENDCHAR
STARTCHAR eth
ENCODING 240
SWIDTH 313 0
DWIDTH 6 0
BBX 5 7 0 0
BITMAP
68
10
08
78
88
88
70
ENDCHAR
STARTCHAR ntilde
ENCODING 241
SWIDTH 313 0
DWIDTH 6 0
BBX 5 8 0 0
BITMAP
28
50
00
F0
88
88
88
88
ENDCHAR
STARTCHAR ograve
ENCODING 242
SWIDTH 313 0
DWIDTH 6 0
BBX 5 8 0 0
BITMAP
40
20
00
70
88
88
88
70
ENDCHAR
STARTCHAR oacute
ENCODING 243
SWIDTH 313 0
DWIDTH 6 0
BBX 5 8 0 0
BITMAP
20
40
00
70
88
88
88
70
ENDCHAR
STARTCHAR ocircumflex
ENCODING 244
SWIDTH 313 0
DWIDTH 6 0
BBX 5 8 0 0
BITMAP
20
50
00
70
88
88
88
70
ENDCHAR
STARTCHAR otilde
ENCODING 245
SWIDTH 313 0
DWIDTH 6 0
BBX 5 8 0 0
BITMAP
50
A0
00
70
88
88
88
70
ENDCHAR
STARTCHAR odieresis
ENCODING 246
SWIDTH 313 0
DWIDTH 6 0
BBX 5 7 0 0
BITMAP
50
00
70
88
88
88
70
ENDCHAR
STARTCHAR divide
ENCODING 247
SWIDTH 313 0
DWIDTH 6 0
BBX 5 5 0 1
BITMAP
20
00
F8
00
20
ENDCHAR
STARTCHAR oslash
ENCODING 248
SWIDTH 313 0
DWIDTH 6 0
BBX 5 5 0 0
BITMAP
78
98
A8
C8
F0
ENDCHAR
STARTCHAR ugrave
ENCODING 249
SWIDTH 313 0
DWIDTH 6 0
BBX 5 8 0 0
BITMAP
40
20
00
88
88
88
88
78
ENDCHAR
STARTCHAR uacute
ENCODING 250
SWIDTH 313 0
DWIDTH 6 0
BBX 5 8 0 0
BITMAP
20
40
00
88
88
88
88
78
ENDCHAR
STARTCHAR ucircumflex
ENCODING 251
SWIDTH 313 0
DWIDTH 6 0
BBX 5 8 0 0
BITMAP
20
50
00
88
88
88
88
78
ENDCHAR
STARTCHAR udieresis
ENCODING 252
SWIDTH 313 0
DWIDTH 6 0
BBX 5 7 0 0
BITMAP
50
00
88
88
88
88
78
ENDCHAR
STARTCHAR yacute
ENCODING 253
SWIDTH 313 0
DWIDTH 6 0
BBX 5 10 0 -2
BITMAP
20
40
00
88
88
88
88
78
08
70
ENDCHAR
STARTCHAR thorn
ENCODING 254
SWIDTH 313 0
DWIDTH 6 0
BBX 5 9 0 -2
BITMAP
80
80
F0
88
88
88
F0
80
80
ENDCHAR
STARTCHAR ydieresis
ENCODING 255
SWIDTH 313 0
DWIDTH 6 0
BBX 5 9 0 -2
BITMAP
50
00
88
88
88
88
78
08
70
ENDCHAR
STARTCHAR OE
ENCODING 338
SWIDTH 313 0
DWIDTH 6 0
BBX 6 7 0 0
BITMAP
6C
90
90
98
90
90
6C
ENDCHAR
STARTCHAR oe
ENCODING 339
SWIDTH 313 0
DWIDTH 6 0
BBX 6 5 0 0
BITMAP
6C
90
98
90
6C
ENDCHAR
STARTCHAR Scaron
ENCODING 352
SWIDTH 313 0
DWIDTH 6 0
BBX 5 8 0 0
BITMAP
50
20
00
78
80
F8
08
F0
ENDCHAR
STARTCHAR scaron
ENCODING 353
SWIDTH 313 0
DWIDTH 6 0
BBX 5 8 0 0
BITMAP
50
20
00
78
80
70
08
F0
ENDCHAR
STARTCHAR Ydieresis
ENCODING 376
SWIDTH 313 0
DWIDTH 6 0
BBX 5 8 0 0
BITMAP
50
00
88
88
88
70
20
20
ENDCHAR
STARTCHAR Zcaron
ENCODING 381
SWIDTH 313 0
DWIDTH 6 0
BBX 5 8 0 0
BITMAP
50
20
00
F8
10
20
40
F8
ENDCHAR
STARTCHAR zcaron
ENCODING 382
SWIDTH 313 0
DWIDTH 6 0
BBX 5 8 0 0
BITMAP
50
20
00
F8
10
20
40
F8
ENDCHAR
STARTCHAR florin
ENCODING 402
SWIDTH 313 0
DWIDTH 6 0
BBX 4 10 1 -2
BITMAP
30
40
40
E0
40
40
40
40
40
80
ENDCHAR
STARTCHAR circumflex
ENCODING 710
SWIDTH 313 0
DWIDTH 6 0
BBX 3 2 1 6
BITMAP
40
A0
ENDCHAR
STARTCHAR tilde
ENCODING 732
SWIDTH 313 0
DWIDTH 6 0
BBX 4 2 1 2
BITMAP
50
A0
ENDCHAR
STARTCHAR Alpha
ENCODING 913
SWIDTH 500 0
DWIDTH 6 0
BBX 5 7 0 0
BITMAP
20
20
50
50
70
88
D8
ENDCHAR
STARTCHAR Beta
ENCODING 914
SWIDTH 500 0
DWIDTH 6 0
BBX 5 7 0 0
BITMAP
F0
48
48
70
48
48
F0
ENDCHAR
STARTCHAR Gamma
ENCODING 915
SWIDTH 500 0
DWIDTH 6 0
BBX 5 7 0 0
BITMAP
F8
48
40
40
40
40
E0
ENDCHAR
STARTCHAR Delta
ENCODING 916
SWIDTH 500 0
DWIDTH 6 0
BBX 5 7 0 0
BITMAP
20
20
50
50
88
88
F8
ENDCHAR
STARTCHAR Epsilon
ENCODING 917
SWIDTH 500 0
DWIDTH 6 0
BBX 5 7 0 0
BITMAP
F8
48
40
78
40
48
F8
ENDCHAR
STARTCHAR Zeta
ENCODING 918
SWIDTH 500 0
DWIDTH 6 0
BBX 5 7 0 0
BITMAP
F8
90
10
20
40
48
F8
ENDCHAR
STARTCHAR Eta
ENCODING 919
SWIDTH 500 0
DWIDTH 6 0
BBX 5 7 0 0
BITMAP
D8
50
50
70
50
50
D8
ENDCHAR
STARTCHAR Theta
ENCODING 920
SWIDTH 500 0
DWIDTH 6 0
BBX 5 7 0 0
BITMAP
70
88
D8
F8
D8
88
70
ENDCHAR
STARTCHAR Iota
ENCODING 921
SWIDTH 500 0
DWIDTH 6 0
BBX 3 7 1 0
BITMAP
E0
40
40
40
40
40
E0
ENDCHAR
STARTCHAR Kappa
ENCODING 922
SWIDTH 500 0
DWIDTH 6 0
BBX 5 7 0 0
BITMAP
D8
50
60
40
60
50
D8
ENDCHAR
STARTCHAR Lambda
ENCODING 923
SWIDTH 500 0
DWIDTH 6 0
BBX 5 7 0 0
BITMAP
20
20
50
50
88
88
D8
ENDCHAR
STARTCHAR Mu
ENCODING 924
SWIDTH 500 0
DWIDTH 6 0
BBX 5 7 0 0
BITMAP
88
D8
D8
A8
A8
88
D8
ENDCHAR
STARTCHAR Nu
ENCODING 925
SWIDTH 500 0
DWIDTH 6 0
BBX 5 7 0 0
BITMAP
D8
48
68
68
58
58
C8
ENDCHAR
STARTCHAR Xi
ENCODING 926
SWIDTH 500 0
DWIDTH 6 0
BBX 5 7 0 0
BITMAP
F8
88
00
70
00
88
F8
ENDCHAR
STARTCHAR Omicron
ENCODING 927
SWIDTH 500 0
DWIDTH 6 0
BBX 5 7 0 0
BITMAP
70
88
88
88
88
88
70
ENDCHAR
STARTCHAR Pi
ENCODING 928
SWIDTH 500 0
DWIDTH 6 0
BBX 5 7 0 0
BITMAP
F8
50
50
50
50
50
D8
ENDCHAR
STARTCHAR Rho
ENCODING 929
SWIDTH 500 0
DWIDTH 6 0
BBX 5 7 0 0
BITMAP
F0
48
48
70
40
40
C0
ENDCHAR
STARTCHAR Sigma
ENCODING 931
SWIDTH 500 0
DWIDTH 6 0
BBX 5 7 0 0
BITMAP
F8
48
20
10
20
48
F8
ENDCHAR
STARTCHAR Tau
ENCODING 932
SWIDTH 500 0
DWIDTH 6 0
BBX 5 7 0 0
BITMAP
F8
A8
20
20
20
20
70
ENDCHAR
STARTCHAR Upsilon
ENCODING 933
SWIDTH 500 0
DWIDTH 6 0
BBX 5 7 0 0
BITMAP
D8
50
50
20
20
20
70
ENDCHAR
STARTCHAR Phi
ENCODING 934
SWIDTH 500 0
DWIDTH 6 0
BBX 5 7 0 0
BITMAP
70
20
70
A8
70
20
70
ENDCHAR
STARTCHAR Chi
ENCODING 935
SWIDTH 500 0
DWIDTH 6 0
BBX 5 7 0 0
BITMAP
D8
88
50
20
50
88
D8
ENDCHAR
STARTCHAR Psi
ENCODING 936
SWIDTH 500 0
DWIDTH 6 0
BBX 5 7 0 0
BITMAP
A8
A8
A8
70
20
20
70
ENDCHAR
STARTCHAR Omega
ENCODING 937
SWIDTH 500 0
DWIDTH 6 0
BBX 5 7 0 0
BITMAP
70
88
88
88
88
50
D8
ENDCHAR
STARTCHAR alpha
ENCODING 945
SWIDTH 500 0
DWIDTH 6 0
BBX 5 5 0 0
BITMAP
68
90
90
90
68
ENDCHAR
STARTCHAR beta
ENCODING 946
SWIDTH 1000 0
DWIDTH 12 0
BBX 4 8 0 -1
BITMAP
60
90
90
A0
90
90
E0
80
ENDCHAR
STARTCHAR gamma
ENCODING 947
SWIDTH 500 0
DWIDTH 6 0
BBX 5 7 0 -2
BITMAP
88
48
48
30
10
20
20
ENDCHAR
STARTCHAR delta
ENCODING 948
SWIDTH 500 0
DWIDTH 6 0
BBX 5 7 0 0
BITMAP
30
40
20
50
88
88
70
ENDCHAR
STARTCHAR epsilon
ENCODING 949
SWIDTH 500 0
DWIDTH 6 0
BBX 4 5 1 0
BITMAP
70
80
60
80
70
ENDCHAR
STARTCHAR zeta
ENCODING 950
SWIDTH 500 0
DWIDTH 6 0
BBX 5 10 0 -2
BITMAP
80
70
40
80
80
80
80
70
08
10
ENDCHAR
STARTCHAR eta
ENCODING 951
SWIDTH 500 0
DWIDTH 6 0
BBX 5 6 0 -1
BITMAP
F0
48
48
48
48
08
ENDCHAR
STARTCHAR theta
ENCODING 952
SWIDTH 500 0
DWIDTH 6 0
BBX 4 7 1 0
BITMAP
60
90
90
F0
90
90
60
ENDCHAR
STARTCHAR iota
ENCODING 953
SWIDTH 500 0
DWIDTH 6 0
BBX 2 5 2 0
BITMAP
80
80
80
80
40
ENDCHAR
STARTCHAR kappa
ENCODING 954
SWIDTH 500 0
DWIDTH 6 0
BBX 4 5 1 0
BITMAP
90
A0
C0
A0
90
ENDCHAR
STARTCHAR lambda
ENCODING 955
SWIDTH 500 0
DWIDTH 6 0
BBX 5 7 0 0
BITMAP
40
20
20
20
50
50
88
ENDCHAR
STARTCHAR mu
ENCODING 956
SWIDTH 500 0
DWIDTH 6 0
BBX 5 6 0 -1
BITMAP
90
90
90
90
E8
80
ENDCHAR
STARTCHAR nu
ENCODING 957
SWIDTH 500 0
DWIDTH 6 0
BBX 5 5 0 0
BITMAP
88
48
48
50
20
ENDCHAR
STARTCHAR xi
ENCODING 958
SWIDTH 500 0
DWIDTH 6 0
BBX 5 10 0 -2
BITMAP
80
70
80
80
60
80
80
70
08
10
ENDCHAR
STARTCHAR omicron
ENCODING 959
SWIDTH 500 0
DWIDTH 6 0
BBX 5 5 0 0
BITMAP
70
88
88
88
70
ENDCHAR
STARTCHAR pi
ENCODING 960
SWIDTH 500 0
DWIDTH 6 0
BBX 5 5 0 0
BITMAP
F8
50
50
50
98
ENDCHAR
STARTCHAR rho
ENCODING 961
SWIDTH 500 0
DWIDTH 6 0
BBX 4 6 1 -2
BITMAP
60
90
90
E0
80
80
ENDCHAR
STARTCHAR sigma1
ENCODING 962
SWIDTH 500 0
DWIDTH 6 0
BBX 5 7 0 -2
BITMAP
78
80
80
80
70
08
10
ENDCHAR
STARTCHAR sigma
ENCODING 963
SWIDTH 500 0
DWIDTH 6 0
BBX 5 5 0 0
BITMAP
78
90
90
90
60
ENDCHAR
STARTCHAR tau
ENCODING 964
SWIDTH 500 0
DWIDTH 6 0
BBX 5 5 0 0
BITMAP
F8
20
20
20
10
ENDCHAR
STARTCHAR upsilon
ENCODING 965
SWIDTH 500 0
DWIDTH 6 0
BBX 5 5 0 0
BITMAP
88
48
48
48
30
ENDCHAR
STARTCHAR phi
ENCODING 966
SWIDTH 500 0
DWIDTH 6 0
BBX 5 7 0 -2
BITMAP
40
90
A8
A8
70
20
20
ENDCHAR
STARTCHAR chi
ENCODING 967
SWIDTH 500 0
DWIDTH 6 0
BBX 5 7 0 -2
BITMAP
88
48
50
20
50
90
88
ENDCHAR
STARTCHAR psi
ENCODING 968
SWIDTH 500 0
DWIDTH 6 0
BBX 5 8 0 -2
BITMAP
20
A8
A8
A8
A8
70
20
20
ENDCHAR
STARTCHAR omega
ENCODING 969
SWIDTH 500 0
DWIDTH 6 0
BBX 5 5 0 0
BITMAP
50
88
A8
A8
50
ENDCHAR
STARTCHAR phi1
ENCODING 981
SWIDTH 500 0
DWIDTH 6 0
BBX 5 9 0 -2
BITMAP
20
20
70
A8
A8
A8
70
20
20
ENDCHAR
STARTCHAR omega1
ENCODING 982
SWIDTH 500 0
DWIDTH 6 0
BBX 5 5 0 0
BITMAP
F8
88
A8
A8
50
ENDCHAR
STARTCHAR char3232
ENCODING 3232
SWIDTH 313 0
DWIDTH 6 0
BBX 6 8 0 0
BITMAP
08
04
04
F8
88
A8
88
70
ENDCHAR
STARTCHAR endash
ENCODING 8211
SWIDTH 313 0
DWIDTH 6 0
BBX 5 1 0 2
BITMAP
F8
ENDCHAR
STARTCHAR emdash
ENCODING 8212
SWIDTH 313 0
DWIDTH 6 0
BBX 6 1 0 2
BITMAP
FC
ENDCHAR
STARTCHAR quoteleft
ENCODING 8216
SWIDTH 313 0
DWIDTH 6 0
BBX 2 3 2 5
BITMAP
80
80
40
ENDCHAR
STARTCHAR quoteright
ENCODING 8217
SWIDTH 313 0
DWIDTH 6 0
BBX 2 3 2 5
BITMAP
40
40
80
ENDCHAR
STARTCHAR quotesinglbase
ENCODING 8218
SWIDTH 313 0
DWIDTH 6 0
BBX 2 2 2 -1
BITMAP
40
80
ENDCHAR
STARTCHAR quotedblleft
ENCODING 8220
SWIDTH 313 0
DWIDTH 6 0
BBX 4 3 1 5
BITMAP
A0
A0
50
ENDCHAR
STARTCHAR quotedblright
ENCODING 8221
SWIDTH 313 0
DWIDTH 6 0
BBX 4 3 1 5
BITMAP
50
50
A0
ENDCHAR
STARTCHAR quotedblbase
ENCODING 8222
SWIDTH 313 0
DWIDTH 6 0
BBX 3 2 1 -1
BITMAP
A0
A0
ENDCHAR
STARTCHAR dagger
ENCODING 8224
SWIDTH 313 0
DWIDTH 6 0
BBX 5 9 0 -1
BITMAP
20
20
F8
20
20
20
20
20
20
ENDCHAR
STARTCHAR daggerdbl
ENCODING 8225
SWIDTH 313 0
DWIDTH 6 0
BBX 5 9 0 -1
BITMAP
20
20
F8
20
F8
20
20
20
20
ENDCHAR
STARTCHAR bullet
ENCODING 8226
SWIDTH 313 0
DWIDTH 6 0
BBX 2 2 2 2
BITMAP
C0
C0
ENDCHAR
STARTCHAR ellipsis
ENCODING 8230
SWIDTH 313 0
DWIDTH 6 0
BBX 5 1 0 0
BITMAP
A8
ENDCHAR
STARTCHAR perthousand
ENCODING 8240
SWIDTH 313 0
DWIDTH 6 0
BBX 6 5 0 1
BITMAP
48
50
20
54
94
ENDCHAR
STARTCHAR guilsinglleft
ENCODING 8249
SWIDTH 313 0
DWIDTH 6 0
BBX 3 5 1 0
BITMAP
20
40
80
40
20
ENDCHAR
STARTCHAR guilsinglright
ENCODING 8250
SWIDTH 313 0
DWIDTH 6 0
BBX 3 5 2 0
BITMAP
80
40
20
40
80
ENDCHAR
STARTCHAR uni203D
ENCODING 8253
SWIDTH 500 0
DWIDTH 6 0
BBX 5 7 0 0
BITMAP
70
A8
28
30
20
00
20
ENDCHAR
STARTCHAR Euro
ENCODING 8364
SWIDTH 313 0
DWIDTH 6 0
BBX 6 7 0 0
BITMAP
38
44
F0
40
F0
44
38
ENDCHAR
STARTCHAR char8469
ENCODING 8469
SWIDTH 313 0
DWIDTH 6 0
BBX 5 7 0 0
BITMAP
88
C8
A8
D8
A8
98
88
ENDCHAR
STARTCHAR char8477
ENCODING 8477
SWIDTH 313 0
DWIDTH 6 0
BBX 6 7 0 0
BITMAP
F8
A4
A4
B8
A4
A4
E4
ENDCHAR
STARTCHAR servicemark
ENCODING 8480
SWIDTH 313 0
DWIDTH 6 0
BBX 6 5 0 2
BITMAP
74
9C
5C
34
D4
ENDCHAR
STARTCHAR trademark
ENCODING 8482
SWIDTH 313 0
DWIDTH 6 0
BBX 6 5 0 2
BITMAP
F4
5C
5C
54
54
ENDCHAR
STARTCHAR arrowright
ENCODING 8594
SWIDTH 1000 0
DWIDTH 12 0
BBX 11 5 0 1
BITMAP
0080
0040
FFE0
0040
0080
ENDCHAR
STARTCHAR arrowdblright
ENCODING 8658
SWIDTH 1000 0
DWIDTH 12 0
BBX 11 7 0 0
BITMAP
0100
0080
FFC0
0020
FFC0
0080
0100
ENDCHAR
STARTCHAR universal
ENCODING 8704
SWIDTH 500 0
DWIDTH 6 0
BBX 5 7 0 0
BITMAP
88
88
70
50
50
20
20
ENDCHAR
STARTCHAR existential
ENCODING 8707
SWIDTH 500 0
DWIDTH 6 0
BBX 5 7 0 0
BITMAP
F8
08
08
F8
08
08
F8
ENDCHAR
STARTCHAR uni2204
ENCODING 8708
SWIDTH 500 0
DWIDTH 6 0
BBX 5 9 0 -1
BITMAP
10
F8
28
28
F8
48
48
F8
80
ENDCHAR
STARTCHAR element
ENCODING 8712
SWIDTH 500 0
DWIDTH 6 0
BBX 5 7 0 0
BITMAP
38
40
80
F8
80
40
38
ENDCHAR
STARTCHAR notelement
ENCODING 8713
SWIDTH 500 0
DWIDTH 6 0
BBX 5 9 0 -1
BITMAP
08
38
50
90
F8
A0
60
78
40
ENDCHAR
STARTCHAR uni220A
ENCODING 8714
SWIDTH 500 0
DWIDTH 6 0
BBX 4 5 1 0
BITMAP
70
80
F0
80
70
ENDCHAR
STARTCHAR suchthat
ENCODING 8715
SWIDTH 500 0
DWIDTH 6 0
BBX 5 7 0 0
BITMAP
E0
10
08
F8
08
10
E0
ENDCHAR
STARTCHAR uni220C
ENCODING 8716
SWIDTH 500 0
DWIDTH 6 0
BBX 5 9 0 -1
BITMAP
10
F0
30
28
F8
48
50
E0
80
ENDCHAR
STARTCHAR uni220D
ENCODING 8717
SWIDTH 500 0
DWIDTH 6 0
BBX 4 5 1 0
BITMAP
E0
10
F0
10
E0
ENDCHAR
STARTCHAR radical
ENCODING 8730
SWIDTH 500 0
DWIDTH 6 0
BBX 6 8 0 0
BITMAP
0C
10
10
10
20
A0
40
40
ENDCHAR
STARTCHAR infinity
ENCODING 8734
SWIDTH 1000 0
DWIDTH 12 0
BBX 11 5 0 1
BITMAP
71C0
8A20
8420
8A20
71C0
ENDCHAR
STARTCHAR logicaland
ENCODING 8743
SWIDTH 1000 0
DWIDTH 6 0
BBX 5 5 0 0
BITMAP
20
50
50
88
88
ENDCHAR
STARTCHAR logicalor
ENCODING 8744
SWIDTH 1000 0
DWIDTH 6 0
BBX 5 5 0 0
BITMAP
88
88
50
50
20
ENDCHAR
STARTCHAR intersection
ENCODING 8745
SWIDTH 1000 0
DWIDTH 6 0
BBX 5 5 0 1
BITMAP
70
88
88
88
88
ENDCHAR
STARTCHAR union
ENCODING 8746
SWIDTH 1000 0
DWIDTH 6 0
BBX 5 5 0 1
BITMAP
88
88
88
88
70
ENDCHAR
STARTCHAR therefore
ENCODING 8756
SWIDTH 500 0
DWIDTH 6 0
BBX 3 3 1 2
BITMAP
40
00
A0
ENDCHAR
STARTCHAR congruent
ENCODING 8773
SWIDTH 500 0
DWIDTH 6 0
BBX 6 6 0 2
BITMAP
64
98
00
FC
00
FC
ENDCHAR
STARTCHAR notequal
ENCODING 8800
SWIDTH 500 0
DWIDTH 6 0
BBX 5 5 0 1
BITMAP
10
F8
20
F8
40
ENDCHAR
STARTCHAR equivalence
ENCODING 8801
SWIDTH 500 0
DWIDTH 6 0
BBX 5 5 0 1
BITMAP
F8
00
F8
00
F8
ENDCHAR
STARTCHAR propersubset
ENCODING 8834
SWIDTH 500 0
DWIDTH 6 0
BBX 5 5 0 1
BITMAP
78
80
80
80
78
ENDCHAR
STARTCHAR propersuperset
ENCODING 8835
SWIDTH 500 0
DWIDTH 6 0
BBX 5 5 0 1
BITMAP
F0
08
08
08
F0
ENDCHAR
STARTCHAR notsubset
ENCODING 8836
SWIDTH 500 0
DWIDTH 6 0
BBX 5 7 0 0
BITMAP
10
78
A0
A0
A0
78
40
ENDCHAR
STARTCHAR uni2285
ENCODING 8837
SWIDTH 500 0
DWIDTH 6 0
BBX 5 7 0 0
BITMAP
10
F0
28
28
28
F0
40
ENDCHAR
STARTCHAR reflexsubset
ENCODING 8838
SWIDTH 500 0
DWIDTH 6 0
BBX 5 7 0 -1
BITMAP
78
80
80
80
78
00
F8
ENDCHAR
STARTCHAR reflexsuperset
ENCODING 8839
SWIDTH 500 0
DWIDTH 6 0
BBX 5 7 0 -1
BITMAP
F0
08
08
08
F0
00
F8
ENDCHAR
STARTCHAR uni2288
ENCODING 8840
SWIDTH 500 0
DWIDTH 6 0
BBX 5 9 0 -2
BITMAP
10
78
A0
A0
A0
78
40
F8
40
ENDCHAR
STARTCHAR uni2289
ENCODING 8841
SWIDTH 1000 0
DWIDTH 12 0
BBX 5 9 0 -2
BITMAP
10
F0
28
28
28
F0
40
F8
40
ENDCHAR
STARTCHAR uni22C8
ENCODING 8904
SWIDTH 1000 0
DWIDTH 12 0
BBX 9 7 1 0
BITMAP
C180
A280
9480
8880
9480
A280
C180
ENDCHAR
STARTCHAR house
ENCODING 8962
SWIDTH 500 0
DWIDTH 6 0
BBX 5 6 0 0
BITMAP
20
50
88
88
88
F8
ENDCHAR
STARTCHAR uni2308
ENCODING 8968
SWIDTH 500 0
DWIDTH 6 0
BBX 3 8 2 0
BITMAP
E0
80
80
80
80
80
80
80
ENDCHAR
STARTCHAR uni2309
ENCODING 8969
SWIDTH 500 0
DWIDTH 6 0
BBX 3 8 0 0
BITMAP
E0
20
20
20
20
20
20
20
ENDCHAR
STARTCHAR uni230A
ENCODING 8970
SWIDTH 500 0
DWIDTH 6 0
BBX 3 8 2 -1
BITMAP
80
80
80
80
80
80
80
E0
ENDCHAR
STARTCHAR uni230B
ENCODING 8971
SWIDTH 500 0
DWIDTH 6 0
BBX 3 8 0 -1
BITMAP
20
20
20
20
20
20
20
E0
ENDCHAR
STARTCHAR uni231A
ENCODING 8986
SWIDTH 500 0
DWIDTH 6 0
BBX 5 5 0 1
BITMAP
70
A8
B8
88
70
ENDCHAR
STARTCHAR uni231B
ENCODING 8987
SWIDTH 500 0
DWIDTH 6 0
BBX 5 7 0 0
BITMAP
F8
88
50
20
50
A8
F8
ENDCHAR
STARTCHAR uni2325
ENCODING 8997
SWIDTH 500 0
DWIDTH 6 0
BBX 5 6 0 0
BITMAP
D8
40
20
20
10
18
ENDCHAR
STARTCHAR char9472
ENCODING 9472
SWIDTH 313 0
DWIDTH 6 0
BBX 6 1 0 2
BITMAP
FC
ENDCHAR
STARTCHAR char9473
ENCODING 9473
SWIDTH 313 0
DWIDTH 6 0
BBX 6 2 0 2
BITMAP
FC
FC
ENDCHAR
STARTCHAR char9474
ENCODING 9474
SWIDTH 313 0
DWIDTH 6 0
BBX 1 12 3 -3
BITMAP
80
80
80
80
80
80
80
80
80
80
80
80
ENDCHAR
STARTCHAR char9475
ENCODING 9475
SWIDTH 313 0
DWIDTH 6 0
BBX 2 12 2 -3
BITMAP
C0
C0
C0
C0
C0
C0
C0
C0
C0
C0
C0
C0
ENDCHAR
STARTCHAR char9476
ENCODING 9476
SWIDTH 313 0
DWIDTH 6 0
BBX 6 1 0 2
BITMAP
CC
ENDCHAR
STARTCHAR char9477
ENCODING 9477
SWIDTH 313 0
DWIDTH 6 0
BBX 6 2 0 2
BITMAP
CC
CC
ENDCHAR
STARTCHAR char9478
ENCODING 9478
SWIDTH 313 0
DWIDTH 6 0
BBX 1 12 3 -3
BITMAP
80
80
00
00
80
80
80
80
00
00
80
80
ENDCHAR
STARTCHAR char9479
ENCODING 9479
SWIDTH 313 0
DWIDTH 6 0
BBX 2 12 2 -3
BITMAP
C0
C0
00
00
C0
C0
C0
C0
00
00
C0
C0
ENDCHAR
STARTCHAR char9480
ENCODING 9480
SWIDTH 313 0
DWIDTH 6 0
BBX 5 1 0 2
BITMAP
A8
ENDCHAR
STARTCHAR char9481
ENCODING 9481
SWIDTH 313 0
DWIDTH 6 0
BBX 5 2 0 2
BITMAP
D8
D8
ENDCHAR
STARTCHAR char9482
ENCODING 9482
SWIDTH 313 0
DWIDTH 6 0
BBX 1 11 3 -2
BITMAP
80
00
80
00
80
00
80
00
80
00
80
ENDCHAR
STARTCHAR char9483
ENCODING 9483
SWIDTH 313 0
DWIDTH 6 0
BBX 2 11 2 -2
BITMAP
C0
C0
00
C0
C0
00
C0
C0
00
C0
C0
ENDCHAR
STARTCHAR char9484
ENCODING 9484
SWIDTH 313 0
DWIDTH 6 0
BBX 3 6 3 -3
BITMAP
E0
80
80
80
80
80
ENDCHAR
STARTCHAR char9485
ENCODING 9485
SWIDTH 313 0
DWIDTH 6 0
BBX 3 7 3 -3
BITMAP
E0
E0
80
80
80
80
80
ENDCHAR
STARTCHAR char9486
ENCODING 9486
SWIDTH 313 0
DWIDTH 6 0
BBX 4 6 2 -3
BITMAP
F0
C0
C0
C0
C0
C0
ENDCHAR
STARTCHAR char9487
ENCODING 9487
SWIDTH 313 0
DWIDTH 6 0
BBX 4 7 2 -3
BITMAP
F0
F0
C0
C0
C0
C0
C0
ENDCHAR
STARTCHAR char9488
ENCODING 9488
SWIDTH 313 0
DWIDTH 6 0
BBX 4 6 0 -3
BITMAP
F0
10
10
10
10
10
ENDCHAR
STARTCHAR char9489
ENCODING 9489
SWIDTH 313 0
DWIDTH 6 0
BBX 4 7 0 -3
BITMAP
F0
F0
10
10
10
10
10
ENDCHAR
STARTCHAR char9490
ENCODING 9490
SWIDTH 313 0
DWIDTH 6 0
BBX 4 6 0 -3
BITMAP
F0
30
30
30
30
30
ENDCHAR
STARTCHAR char9491
ENCODING 9491
SWIDTH 313 0
DWIDTH 6 0
BBX 4 7 0 -3
BITMAP
F0
F0
30
30
30
30
30
ENDCHAR
STARTCHAR char9492
ENCODING 9492
SWIDTH 313 0
DWIDTH 6 0
BBX 3 7 3 2
BITMAP
80
80
80
80
80
80
E0
ENDCHAR
STARTCHAR char9493
ENCODING 9493
SWIDTH 313 0
DWIDTH 6 0
BBX 3 7 3 2
BITMAP
80
80
80
80
80
E0
E0
ENDCHAR
STARTCHAR char9494
ENCODING 9494
SWIDTH 313 0
DWIDTH 6 0
BBX 4 7 2 2
BITMAP
C0
C0
C0
C0
C0
C0
F0
ENDCHAR
STARTCHAR char9495
ENCODING 9495
SWIDTH 313 0
DWIDTH 6 0
BBX 4 7 2 2
BITMAP
C0
C0
C0
C0
C0
F0
F0
ENDCHAR
STARTCHAR char9496
ENCODING 9496
SWIDTH 313 0
DWIDTH 6 0
BBX 4 7 0 2
BITMAP
10
10
10
10
10
10
F0
ENDCHAR
STARTCHAR char9497
ENCODING 9497
SWIDTH 313 0
DWIDTH 6 0
BBX 4 7 0 2
BITMAP
10
10
10
10
10
F0
F0
ENDCHAR
STARTCHAR char9498
ENCODING 9498
SWIDTH 313 0
DWIDTH 6 0
BBX 4 7 0 2
BITMAP
30
30
30
30
30
30
F0
ENDCHAR
STARTCHAR char9499
ENCODING 9499
SWIDTH 313 0
DWIDTH 6 0
BBX 4 7 0 2
BITMAP
30
30
30
30
30
F0
F0
ENDCHAR
STARTCHAR char9500
ENCODING 9500
SWIDTH 313 0
DWIDTH 6 0
BBX 3 12 3 -3
BITMAP
80
80
80
80
80
80
E0
80
80
80
80
80
ENDCHAR
STARTCHAR char9501
ENCODING 9501
SWIDTH 313 0
DWIDTH 6 0
BBX 3 12 3 -3
BITMAP
80
80
80
80
80
E0
E0
80
80
80
80
80
ENDCHAR
STARTCHAR char9502
ENCODING 9502
SWIDTH 313 0
DWIDTH 6 0
BBX 4 12 2 -3
BITMAP
C0
C0
C0
C0
C0
C0
F0
40
40
40
40
40
ENDCHAR
STARTCHAR char9503
ENCODING 9503
SWIDTH 313 0
DWIDTH 6 0
BBX 4 12 2 -3
BITMAP
40
40
40
40
40
40
F0
C0
C0
C0
C0
C0
ENDCHAR
STARTCHAR char9504
ENCODING 9504
SWIDTH 313 0
DWIDTH 6 0
BBX 4 12 2 -3
BITMAP
C0
C0
C0
C0
C0
C0
F0
C0
C0
C0
C0
C0
ENDCHAR
STARTCHAR char9505
ENCODING 9505
SWIDTH 313 0
DWIDTH 6 0
BBX 4 12 2 -3
BITMAP
C0
C0
C0
C0
C0
F0
F0
40
40
40
40
40
ENDCHAR
STARTCHAR char9506
ENCODING 9506
SWIDTH 313 0
DWIDTH 6 0
BBX 4 12 2 -3
BITMAP
40
40
40
40
40
F0
F0
C0
C0
C0
C0
C0
ENDCHAR
STARTCHAR char9507
ENCODING 9507
SWIDTH 313 0
DWIDTH 6 0
BBX 4 12 2 -3
BITMAP
C0
C0
C0
C0
C0
F0
F0
C0
C0
C0
C0
C0
ENDCHAR
STARTCHAR char9508
ENCODING 9508
SWIDTH 313 0
DWIDTH 6 0
BBX 4 12 0 -3
BITMAP
10
10
10
10
10
10
F0
10
10
10
10
10
ENDCHAR
STARTCHAR char9509
ENCODING 9509
SWIDTH 313 0
DWIDTH 6 0
BBX 4 12 0 -3
BITMAP
10
10
10
10
10
F0
F0
10
10
10
10
10
ENDCHAR
STARTCHAR char9510
ENCODING 9510
SWIDTH 313 0
DWIDTH 6 0
BBX 4 12 0 -3
BITMAP
30
30
30
30
30
30
F0
10
10
10
10
10
ENDCHAR
STARTCHAR char9511
ENCODING 9511
SWIDTH 313 0
DWIDTH 6 0
BBX 4 12 0 -3
BITMAP
10
10
10
10
10
10
F0
30
30
30
30
30
ENDCHAR
STARTCHAR char9512
ENCODING 9512
SWIDTH 313 0
DWIDTH 6 0
BBX 4 12 0 -3
BITMAP
30
30
30
30
30
30
F0
30
30
30
30
30
ENDCHAR
STARTCHAR char9513
ENCODING 9513
SWIDTH 313 0
DWIDTH 6 0
BBX 4 12 0 -3
BITMAP
30
30
30
30
30
F0
F0
10
10
10
10
10
ENDCHAR
STARTCHAR char9514
ENCODING 9514
SWIDTH 313 0
DWIDTH 6 0
BBX 4 12 0 -3
BITMAP
10
10
10
10
10
F0
F0
30
30
30
30
30
ENDCHAR
STARTCHAR char9515
ENCODING 9515
SWIDTH 313 0
DWIDTH 6 0
BBX 4 12 0 -3
BITMAP
30
30
30
30
30
F0
F0
30
30
30
30
30
ENDCHAR
STARTCHAR char9516
ENCODING 9516
SWIDTH 313 0
DWIDTH 6 0
BBX 6 6 0 -3
BITMAP
FC
10
10
10
10
10
ENDCHAR
STARTCHAR char9517
ENCODING 9517
SWIDTH 313 0
DWIDTH 6 0
BBX 6 7 0 -3
BITMAP
F0
FC
10
10
10
10
10
ENDCHAR
STARTCHAR char9518
ENCODING 9518
SWIDTH 313 0
DWIDTH 6 0
BBX 6 7 0 -3
BITMAP
1C
FC
10
10
10
10
10
ENDCHAR
STARTCHAR char9519
ENCODING 9519
SWIDTH 313 0
DWIDTH 6 0
BBX 6 7 0 -3
BITMAP
FC
FC
10
10
10
10
10
ENDCHAR
STARTCHAR char9520
ENCODING 9520
SWIDTH 313 0
DWIDTH 6 0
BBX 6 6 0 -3
BITMAP
FC
30
30
30
30
30
ENDCHAR
STARTCHAR char9521
ENCODING 9521
SWIDTH 313 0
DWIDTH 6 0
BBX 6 7 0 -3
BITMAP
F0
FC
30
30
30
30
30
ENDCHAR
STARTCHAR char9522
ENCODING 9522
SWIDTH 313 0
DWIDTH 6 0
BBX 6 7 0 -3
BITMAP
3C
FC
30
30
30
30
30
ENDCHAR
STARTCHAR char9523
ENCODING 9523
SWIDTH 313 0
DWIDTH 6 0
BBX 6 7 0 -3
BITMAP
FC
FC
30
30
30
30
30
ENDCHAR
STARTCHAR char9524
ENCODING 9524
SWIDTH 313 0
DWIDTH 6 0
BBX 6 7 0 2
BITMAP
10
10
10
10
10
10
FC
ENDCHAR
STARTCHAR char9525
ENCODING 9525
SWIDTH 313 0
DWIDTH 6 0
BBX 6 7 0 2
BITMAP
10
10
10
10
10
F0
FC
ENDCHAR
STARTCHAR char9526
ENCODING 9526
SWIDTH 313 0
DWIDTH 6 0
BBX 6 7 0 2
BITMAP
10
10
10
10
10
1C
FC
ENDCHAR
STARTCHAR char9527
ENCODING 9527
SWIDTH 313 0
DWIDTH 6 0
BBX 6 7 0 2
BITMAP
10
10
10
10
10
FC
FC
ENDCHAR
STARTCHAR char9528
ENCODING 9528
SWIDTH 313 0
DWIDTH 6 0
BBX 6 7 0 2
BITMAP
30
30
30
30
30
30
FC
ENDCHAR
STARTCHAR char9529
ENCODING 9529
SWIDTH 313 0
DWIDTH 6 0
BBX 6 7 0 2
BITMAP
30
30
30
30
30
F0
FC
ENDCHAR
STARTCHAR char9530
ENCODING 9530
SWIDTH 313 0
DWIDTH 6 0
BBX 6 7 0 2
BITMAP
30
30
30
30
30
3C
FC
ENDCHAR
STARTCHAR char9531
ENCODING 9531
SWIDTH 313 0
DWIDTH 6 0
BBX 6 7 0 2
BITMAP
30
30
30
30
30
FC
FC
ENDCHAR
STARTCHAR char9532
ENCODING 9532
SWIDTH 313 0
DWIDTH 6 0
BBX 6 12 0 -3
BITMAP
10
10
10
10
10
10
FC
10
10
10
10
10
ENDCHAR
STARTCHAR char9533
ENCODING 9533
SWIDTH 313 0
DWIDTH 6 0
BBX 6 12 0 -3
BITMAP
10
10
10
10
10
F0
FC
10
10
10
10
10
ENDCHAR
STARTCHAR char9534
ENCODING 9534
SWIDTH 313 0
DWIDTH 6 0
BBX 6 12 0 -3
BITMAP
10
10
10
10
10
1C
FC
10
10
10
10
10
ENDCHAR
STARTCHAR char9535
ENCODING 9535
SWIDTH 313 0
DWIDTH 6 0
BBX 6 12 0 -3
BITMAP
10
10
10
10
10
FC
FC
10
10
10
10
10
ENDCHAR
STARTCHAR char9536
ENCODING 9536
SWIDTH 313 0
DWIDTH 6 0
BBX 6 12 0 -3
BITMAP
30
30
30
30
30
30
FC
10
10
10
10
10
ENDCHAR
STARTCHAR char9537
ENCODING 9537
SWIDTH 313 0
DWIDTH 6 0
BBX 6 12 0 -3
BITMAP
10
10
10
10
10
10
FC
30
30
30
30
30
ENDCHAR
STARTCHAR char9538
ENCODING 9538
SWIDTH 313 0
DWIDTH 6 0
BBX 6 12 0 -3
BITMAP
30
30
30
30
30
30
FC
30
30
30
30
30
ENDCHAR
STARTCHAR char9539
ENCODING 9539
SWIDTH 313 0
DWIDTH 6 0
BBX 6 12 0 -3
BITMAP
30
30
30
30
30
F0
FC
10
10
10
10
10
ENDCHAR
STARTCHAR char9540
ENCODING 9540
SWIDTH 313 0
DWIDTH 6 0
BBX 6 12 0 -3
BITMAP
30
30
30
30
30
3C
FC
10
10
10
10
10
ENDCHAR
STARTCHAR char9541
ENCODING 9541
SWIDTH 313 0
DWIDTH 6 0
BBX 6 12 0 -3
BITMAP
10
10
10
10
10
F0
FC
30
30
30
30
30
ENDCHAR
STARTCHAR char9542
ENCODING 9542
SWIDTH 313 0
DWIDTH 6 0
BBX 6 12 0 -3
BITMAP
10
10
10
10
10
1C
FC
30
30
30
30
30
ENDCHAR
STARTCHAR char9543
ENCODING 9543
SWIDTH 313 0
DWIDTH 6 0
BBX 6 12 0 -3
BITMAP
30
30
30
30
30
FC
FC
10
10
10
10
10
ENDCHAR
STARTCHAR char9544
ENCODING 9544
SWIDTH 313 0
DWIDTH 6 0
BBX 6 12 0 -3
BITMAP
10
10
10
10
10
FC
FC
30
30
30
30
30
ENDCHAR
STARTCHAR char9545
ENCODING 9545
SWIDTH 313 0
DWIDTH 6 0
BBX 6 12 0 -3
BITMAP
30
30
30
30
30
F0
FC
30
30
30
30
30
ENDCHAR
STARTCHAR char9546
ENCODING 9546
SWIDTH 313 0
DWIDTH 6 0
BBX 6 12 0 -3
BITMAP
30
30
30
30
30
3C
FC
30
30
30
30
30
ENDCHAR
STARTCHAR char9547
ENCODING 9547
SWIDTH 313 0
DWIDTH 6 0
BBX 6 12 0 -3
BITMAP
30
30
30
30
30
FC
FC
30
30
30
30
30
ENDCHAR
STARTCHAR char9548
ENCODING 9548
SWIDTH 313 0
DWIDTH 6 0
BBX 6 1 0 2
BITMAP
DC
ENDCHAR
STARTCHAR char9549
ENCODING 9549
SWIDTH 313 0
DWIDTH 6 0
BBX 6 2 0 2
BITMAP
DC
DC
ENDCHAR
STARTCHAR char9550
ENCODING 9550
SWIDTH 313 0
DWIDTH 6 0
BBX 1 12 3 -3
BITMAP
80
80
80
00
80
80
80
80
80
00
80
80
ENDCHAR
STARTCHAR char9551
ENCODING 9551
SWIDTH 313 0
DWIDTH 6 0
BBX 2 12 2 -3
BITMAP
C0
C0
C0
00
C0
C0
C0
C0
C0
00
C0
C0
ENDCHAR
STARTCHAR char9552
ENCODING 9552
SWIDTH 313 0
DWIDTH 6 0
BBX 6 3 0 2
BITMAP
FC
00
FC
ENDCHAR
STARTCHAR char9553
ENCODING 9553
SWIDTH 313 0
DWIDTH 6 0
BBX 3 12 1 -3
BITMAP
A0
A0
A0
A0
A0
A0
A0
A0
A0
A0
A0
A0
ENDCHAR
STARTCHAR char9554
ENCODING 9554
SWIDTH 313 0
DWIDTH 6 0
BBX 3 8 3 -3
BITMAP
E0
80
E0
80
80
80
80
80
ENDCHAR
STARTCHAR char9555
ENCODING 9555
SWIDTH 313 0
DWIDTH 6 0
BBX 5 6 1 -3
BITMAP
F8
A0
A0
A0
A0
A0
ENDCHAR
STARTCHAR char9556
ENCODING 9556
SWIDTH 313 0
DWIDTH 6 0
BBX 5 8 1 -3
BITMAP
F8
80
B8
A0
A0
A0
A0
A0
ENDCHAR
STARTCHAR char9557
ENCODING 9557
SWIDTH 313 0
DWIDTH 6 0
BBX 4 8 0 -3
BITMAP
F0
10
F0
10
10
10
10
10
ENDCHAR
STARTCHAR char9558
ENCODING 9558
SWIDTH 313 0
DWIDTH 6 0
BBX 4 6 0 -3
BITMAP
F0
50
50
50
50
50
ENDCHAR
STARTCHAR char9559
ENCODING 9559
SWIDTH 313 0
DWIDTH 6 0
BBX 4 8 0 -3
BITMAP
F0
10
D0
50
50
50
50
50
ENDCHAR
STARTCHAR char9560
ENCODING 9560
SWIDTH 313 0
DWIDTH 6 0
BBX 3 7 3 2
BITMAP
80
80
80
80
E0
80
E0
ENDCHAR
STARTCHAR char9561
ENCODING 9561
SWIDTH 313 0
DWIDTH 6 0
BBX 5 7 1 2
BITMAP
A0
A0
A0
A0
A0
A0
F8
ENDCHAR
STARTCHAR char9562
ENCODING 9562
SWIDTH 313 0
DWIDTH 6 0
BBX 5 7 1 2
BITMAP
A0
A0
A0
A0
B8
80
F8
ENDCHAR
STARTCHAR char9563
ENCODING 9563
SWIDTH 313 0
DWIDTH 6 0
BBX 4 7 0 2
BITMAP
10
10
10
10
F0
10
F0
ENDCHAR
STARTCHAR char9564
ENCODING 9564
SWIDTH 313 0
DWIDTH 6 0
BBX 4 7 0 2
BITMAP
50
50
50
50
50
50
F0
ENDCHAR
STARTCHAR char9565
ENCODING 9565
SWIDTH 313 0
DWIDTH 6 0
BBX 4 7 0 2
BITMAP
50
50
50
50
D0
10
F0
ENDCHAR
STARTCHAR char9566
ENCODING 9566
SWIDTH 313 0
DWIDTH 6 0
BBX 3 12 3 -3
BITMAP
80
80
80
80
E0
80
E0
80
80
80
80
80
ENDCHAR
STARTCHAR char9567
ENCODING 9567
SWIDTH 313 0
DWIDTH 6 0
BBX 5 12 1 -3
BITMAP
A0
A0
A0
A0
A0
A0
B8
A0
A0
A0
A0
A0
ENDCHAR
STARTCHAR char9568
ENCODING 9568
SWIDTH 313 0
DWIDTH 6 0
BBX 5 12 1 -3
BITMAP
A0
A0
A0
A0
B8
80
B8
A0
A0
A0
A0
A0
ENDCHAR
STARTCHAR char9569
ENCODING 9569
SWIDTH 313 0
DWIDTH 6 0
BBX 4 12 0 -3
BITMAP
10
10
10
10
F0
10
F0
10
10
10
10
10
ENDCHAR
STARTCHAR char9570
ENCODING 9570
SWIDTH 313 0
DWIDTH 6 0
BBX 4 12 0 -3
BITMAP
50
50
50
50
50
50
D0
50
50
50
50
50
ENDCHAR
STARTCHAR char9571
ENCODING 9571
SWIDTH 313 0
DWIDTH 6 0
BBX 4 12 0 -3
BITMAP
50
50
50
50
D0
10
D0
50
50
50
50
50
ENDCHAR
STARTCHAR char9572
ENCODING 9572
SWIDTH 313 0
DWIDTH 6 0
BBX 6 8 0 -3
BITMAP
FC
00
FC
10
10
10
10
10
ENDCHAR
STARTCHAR char9573
ENCODING 9573
SWIDTH 313 0
DWIDTH 6 0
BBX 6 6 0 -3
BITMAP
FC
50
50
50
50
50
ENDCHAR
STARTCHAR char9574
ENCODING 9574
SWIDTH 313 0
DWIDTH 6 0
BBX 6 8 0 -3
BITMAP
FC
00
DC
50
50
50
50
50
ENDCHAR
STARTCHAR char9575
ENCODING 9575
SWIDTH 313 0
DWIDTH 6 0
BBX 6 7 0 2
BITMAP
10
10
10
10
FC
00
FC
ENDCHAR
STARTCHAR char9576
ENCODING 9576
SWIDTH 313 0
DWIDTH 6 0
BBX 6 7 0 2
BITMAP
50
50
50
50
50
50
FC
ENDCHAR
STARTCHAR char9577
ENCODING 9577
SWIDTH 313 0
DWIDTH 6 0
BBX 6 7 0 2
BITMAP
50
50
50
50
DC
00
FC
ENDCHAR
STARTCHAR char9578
ENCODING 9578
SWIDTH 313 0
DWIDTH 6 0
BBX 6 12 0 -3
BITMAP
10
10
10
10
FC
10
FC
10
10
10
10
10
ENDCHAR
STARTCHAR char9579
ENCODING 9579
SWIDTH 313 0
DWIDTH 6 0
BBX 6 12 0 -3
BITMAP
50
50
50
50
50
50
FC
50
50
50
50
50
ENDCHAR
STARTCHAR char9580
ENCODING 9580
SWIDTH 313 0
DWIDTH 6 0
BBX 6 12 0 -3
BITMAP
50
50
50
50
DC
00
DC
50
50
50
50
50
ENDCHAR
STARTCHAR char9581
ENCODING 9581
SWIDTH 313 0
DWIDTH 6 0
BBX 3 6 3 -3
BITMAP
20
40
80
80
80
80
ENDCHAR
STARTCHAR char9582
ENCODING 9582
SWIDTH 313 0
DWIDTH 6 0
BBX 4 6 0 -3
BITMAP
C0
20
10
10
10
10
ENDCHAR
STARTCHAR char9583
ENCODING 9583
SWIDTH 313 0
DWIDTH 6 0
BBX 4 7 0 2
BITMAP
10
10
10
10
10
20
C0
ENDCHAR
STARTCHAR char9584
ENCODING 9584
SWIDTH 313 0
DWIDTH 6 0
BBX 3 7 3 2
BITMAP
80
80
80
80
80
40
20
ENDCHAR
STARTCHAR char9585
ENCODING 9585
SWIDTH 313 0
DWIDTH 6 0
BBX 6 12 0 -3
BITMAP
04
04
08
08
10
10
20
20
40
40
80
80
ENDCHAR
STARTCHAR char9586
ENCODING 9586
SWIDTH 313 0
DWIDTH 6 0
BBX 6 12 0 -3
BITMAP
80
80
40
40
20
20
10
10
08
08
04
04
ENDCHAR
STARTCHAR char9587
ENCODING 9587
SWIDTH 313 0
DWIDTH 6 0
BBX 6 12 0 -3
BITMAP
84
84
48
48
30
30
30
30
48
48
84
84
ENDCHAR
STARTCHAR char9588
ENCODING 9588
SWIDTH 313 0
DWIDTH 6 0
BBX 3 1 0 2
BITMAP
E0
ENDCHAR
STARTCHAR char9589
ENCODING 9589
SWIDTH 313 0
DWIDTH 6 0
BBX 1 6 3 3
BITMAP
80
80
80
80
80
80
ENDCHAR
STARTCHAR char9590
ENCODING 9590
SWIDTH 313 0
DWIDTH 6 0
BBX 3 1 3 2
BITMAP
E0
ENDCHAR
STARTCHAR char9591
ENCODING 9591
SWIDTH 313 0
DWIDTH 6 0
BBX 1 6 3 -3
BITMAP
80
80
80
80
80
80
ENDCHAR
STARTCHAR char9592
ENCODING 9592
SWIDTH 313 0
DWIDTH 6 0
BBX 3 2 0 2
BITMAP
E0
E0
ENDCHAR
STARTCHAR char9593
ENCODING 9593
SWIDTH 313 0
DWIDTH 6 0
BBX 2 6 2 3
BITMAP
C0
C0
C0
C0
C0
C0
ENDCHAR
STARTCHAR char9594
ENCODING 9594
SWIDTH 313 0
DWIDTH 6 0
BBX 3 2 3 2
BITMAP
E0
E0
ENDCHAR
STARTCHAR char9595
ENCODING 9595
SWIDTH 313 0
DWIDTH 6 0
BBX 2 6 2 -3
BITMAP
C0
C0
C0
C0
C0
C0
ENDCHAR
STARTCHAR char9596
ENCODING 9596
SWIDTH 313 0
DWIDTH 6 0
BBX 6 2 0 2
BITMAP
1C
FC
ENDCHAR
STARTCHAR char9597
ENCODING 9597
SWIDTH 313 0
DWIDTH 6 0
BBX 2 12 2 -3
BITMAP
40
40
40
40
40
40
C0
C0
C0
C0
C0
C0
ENDCHAR
STARTCHAR char9598
ENCODING 9598
SWIDTH 313 0
DWIDTH 6 0
BBX 6 2 0 2
BITMAP
E0
FC
ENDCHAR
STARTCHAR char9599
ENCODING 9599
SWIDTH 313 0
DWIDTH 6 0
BBX 2 12 2 -3
BITMAP
C0
C0
C0
C0
C0
C0
40
40
40
40
40
40
ENDCHAR
STARTCHAR char9600
ENCODING 9600
SWIDTH 313 0
DWIDTH 6 0
BBX 6 6 0 3
BITMAP
FC
FC
FC
FC
FC
FC
ENDCHAR
STARTCHAR char9601
ENCODING 9601
SWIDTH 313 0
DWIDTH 6 0
BBX 6 1 0 -3
BITMAP
FC
ENDCHAR
STARTCHAR char9602
ENCODING 9602
SWIDTH 313 0
DWIDTH 6 0
BBX 6 3 0 -3
BITMAP
FC
FC
FC
ENDCHAR
STARTCHAR char9603
ENCODING 9603
SWIDTH 313 0
DWIDTH 6 0
BBX 6 4 0 -3
BITMAP
FC
FC
FC
FC
ENDCHAR
STARTCHAR char9604
ENCODING 9604
SWIDTH 313 0
DWIDTH 6 0
BBX 6 6 0 -3
BITMAP
FC
FC
FC
FC
FC
FC
ENDCHAR
STARTCHAR char9605
ENCODING 9605
SWIDTH 313 0
DWIDTH 6 0
BBX 6 7 0 -3
BITMAP
FC
FC
FC
FC
FC
FC
FC
ENDCHAR
STARTCHAR char9606
ENCODING 9606
SWIDTH 313 0
DWIDTH 6 0
BBX 6 9 0 -3
BITMAP
FC
FC
FC
FC
FC
FC
FC
FC
FC
ENDCHAR
STARTCHAR char9607
ENCODING 9607
SWIDTH 313 0
DWIDTH 6 0
BBX 6 10 0 -3
BITMAP
FC
FC
FC
FC
FC
FC
FC
FC
FC
FC
ENDCHAR
STARTCHAR char9608
ENCODING 9608
SWIDTH 313 0
DWIDTH 6 0
BBX 6 12 0 -3
BITMAP
FC
FC
FC
FC
FC
FC
FC
FC
FC
FC
FC
FC
ENDCHAR
STARTCHAR char9609
ENCODING 9609
SWIDTH 313 0
DWIDTH 6 0
BBX 5 12 0 -3
BITMAP
F8
F8
F8
F8
F8
F8
F8
F8
F8
F8
F8
F8
ENDCHAR
STARTCHAR char9610
ENCODING 9610
SWIDTH 313 0
DWIDTH 6 0
BBX 4 12 0 -3
BITMAP
F0
F0
F0
F0
F0
F0
F0
F0
F0
F0
F0
F0
ENDCHAR
STARTCHAR char9611
ENCODING 9611
SWIDTH 313 0
DWIDTH 6 0
BBX 4 12 0 -3
BITMAP
F0
F0
F0
F0
F0
F0
F0
F0
F0
F0
F0
F0
ENDCHAR
STARTCHAR char9612
ENCODING 9612
SWIDTH 313 0
DWIDTH 6 0
BBX 3 12 0 -3
BITMAP
E0
E0
E0
E0
E0
E0
E0
E0
E0
E0
E0
E0
ENDCHAR
STARTCHAR char9613
ENCODING 9613
SWIDTH 313 0
DWIDTH 6 0
BBX 2 12 0 -3
BITMAP
C0
C0
C0
C0
C0
C0
C0
C0
C0
C0
C0
C0
ENDCHAR
STARTCHAR char9614
ENCODING 9614
SWIDTH 313 0
DWIDTH 6 0
BBX 2 12 0 -3
BITMAP
C0
C0
C0
C0
C0
C0
C0
C0
C0
C0
C0
C0
ENDCHAR
STARTCHAR char9615
ENCODING 9615
SWIDTH 313 0
DWIDTH 6 0
BBX 1 12 0 -3
BITMAP
80
80
80
80
80
80
80
80
80
80
80
80
ENDCHAR
STARTCHAR char9616
ENCODING 9616
SWIDTH 313 0
DWIDTH 6 0
BBX 3 12 3 -3
BITMAP
E0
E0
E0
E0
E0
E0
E0
E0
E0
E0
E0
E0
ENDCHAR
STARTCHAR char9617
ENCODING 9617
SWIDTH 313 0
DWIDTH 6 0
BBX 6 11 0 -2
BITMAP
A8
00
54
00
A8
00
54
00
A8
00
54
ENDCHAR
STARTCHAR char9618
ENCODING 9618
SWIDTH 313 0
DWIDTH 6 0
BBX 6 12 0 -3
BITMAP
A8
54
A8
54
A8
54
A8
54
A8
54
A8
54
ENDCHAR
STARTCHAR char9619
ENCODING 9619
SWIDTH 313 0
DWIDTH 6 0
BBX 6 12 0 -3
BITMAP
54
FC
A8
FC
54
FC
A8
FC
54
FC
A8
FC
ENDCHAR
STARTCHAR char9620
ENCODING 9620
SWIDTH 313 0
DWIDTH 6 0
BBX 6 1 0 8
BITMAP
FC
ENDCHAR
STARTCHAR char9621
ENCODING 9621
SWIDTH 313 0
DWIDTH 6 0
BBX 1 12 5 -3
BITMAP
80
80
80
80
80
80
80
80
80
80
80
80
ENDCHAR
STARTCHAR char9622
ENCODING 9622
SWIDTH 313 0
DWIDTH 6 0
BBX 3 6 0 -3
BITMAP
E0
E0
E0
E0
E0
E0
ENDCHAR
STARTCHAR char9623
ENCODING 9623
SWIDTH 313 0
DWIDTH 6 0
BBX 3 6 3 -3
BITMAP
E0
E0
E0
E0
E0
E0
ENDCHAR
STARTCHAR char9624
ENCODING 9624
SWIDTH 313 0
DWIDTH 6 0
BBX 3 6 0 3
BITMAP
E0
E0
E0
E0
E0
E0
ENDCHAR
STARTCHAR char9625
ENCODING 9625
SWIDTH 313 0
DWIDTH 6 0
BBX 6 12 0 -3
BITMAP
E0
E0
E0
E0
E0
E0
FC
FC
FC
FC
FC
FC
ENDCHAR
STARTCHAR char9626
ENCODING 9626
SWIDTH 313 0
DWIDTH 6 0
BBX 6 12 0 -3
BITMAP
E0
E0
E0
E0
E0
E0
1C
1C
1C
1C
1C
1C
ENDCHAR
STARTCHAR char9627
ENCODING 9627
SWIDTH 313 0
DWIDTH 6 0
BBX 6 12 0 -3
BITMAP
FC
FC
FC
FC
FC
FC
E0
E0
E0
E0
E0
E0
ENDCHAR
STARTCHAR char9628
ENCODING 9628
SWIDTH 313 0
DWIDTH 6 0
BBX 6 12 0 -3
BITMAP
FC
FC
FC
FC
FC
FC
1C
1C
1C
1C
1C
1C
ENDCHAR
STARTCHAR char9629
ENCODING 9629
SWIDTH 313 0
DWIDTH 6 0
BBX 3 6 3 3
BITMAP
E0
E0
E0
E0
E0
E0
ENDCHAR
STARTCHAR char9630
ENCODING 9630
SWIDTH 313 0
DWIDTH 6 0
BBX 6 12 0 -3
BITMAP
1C
1C
1C
1C
1C
1C
E0
E0
E0
E0
E0
E0
ENDCHAR
STARTCHAR char9631
ENCODING 9631
SWIDTH 313 0
DWIDTH 6 0
BBX 6 12 0 -3
BITMAP
1C
1C
1C
1C
1C
1C
FC
FC
FC
FC
FC
FC
ENDCHAR
STARTCHAR char9632
ENCODING 9632
SWIDTH 313 0
DWIDTH 6 0
BBX 6 6 0 0
BITMAP
FC
FC
FC
FC
FC
FC
ENDCHAR
STARTCHAR char9633
ENCODING 9633
SWIDTH 313 0
DWIDTH 6 0
BBX 6 6 0 0
BITMAP
FC
84
84
84
84
FC
ENDCHAR
STARTCHAR char9634
ENCODING 9634
SWIDTH 313 0
DWIDTH 6 0
BBX 6 6 0 0
BITMAP
78
84
84
84
84
78
ENDCHAR
STARTCHAR char9635
ENCODING 9635
SWIDTH 313 0
DWIDTH 6 0
BBX 6 6 0 0
BITMAP
FC
84
B4
B4
84
FC
ENDCHAR
STARTCHAR char9636
ENCODING 9636
SWIDTH 313 0
DWIDTH 6 0
BBX 6 6 0 0
BITMAP
FC
84
FC
FC
84
FC
ENDCHAR
STARTCHAR char9637
ENCODING 9637
SWIDTH 313 0
DWIDTH 6 0
BBX 6 6 0 0
BITMAP
FC
B4
B4
B4
B4
FC
ENDCHAR
STARTCHAR char9638
ENCODING 9638
SWIDTH 313 0
DWIDTH 6 0
BBX 6 6 0 0
BITMAP
FC
B4
FC
FC
B4
FC
ENDCHAR
STARTCHAR char9639
ENCODING 9639
SWIDTH 313 0
DWIDTH 6 0
BBX 6 6 0 0
BITMAP
FC
CC
A4
94
CC
FC
ENDCHAR
STARTCHAR char9640
ENCODING 9640
SWIDTH 313 0
DWIDTH 6 0
BBX 6 6 0 0
BITMAP
FC
CC
94
A4
CC
FC
ENDCHAR
STARTCHAR char9641
ENCODING 9641
SWIDTH 313 0
DWIDTH 6 0
BBX 6 6 0 0
BITMAP
FC
AC
D4
AC
D4
FC
ENDCHAR
STARTCHAR char9642
ENCODING 9642
SWIDTH 313 0
DWIDTH 6 0
BBX 4 4 1 1
BITMAP
F0
F0
F0
F0
ENDCHAR
STARTCHAR char9643
ENCODING 9643
SWIDTH 313 0
DWIDTH 6 0
BBX 4 4 1 1
BITMAP
F0
90
90
F0
ENDCHAR
STARTCHAR char9644
ENCODING 9644
SWIDTH 313 0
DWIDTH 6 0
BBX 6 4 0 1
BITMAP
FC
FC
FC
FC
ENDCHAR
STARTCHAR char9645
ENCODING 9645
SWIDTH 313 0
DWIDTH 6 0
BBX 6 4 0 1
BITMAP
FC
84
84
FC
ENDCHAR
STARTCHAR char9646
ENCODING 9646
SWIDTH 313 0
DWIDTH 6 0
BBX 4 10 1 -2
BITMAP
F0
F0
F0
F0
F0
F0
F0
F0
F0
F0
ENDCHAR
STARTCHAR char9647
ENCODING 9647
SWIDTH 313 0
DWIDTH 6 0
BBX 4 10 1 -2
BITMAP
F0
90
90
90
90
90
90
90
90
F0
ENDCHAR
STARTCHAR char9648
ENCODING 9648
SWIDTH 313 0
DWIDTH 6 0
BBX 6 3 0 1
BITMAP
3C
78
F0
ENDCHAR
STARTCHAR char9649
ENCODING 9649
SWIDTH 313 0
DWIDTH 6 0
BBX 6 3 0 1
BITMAP
3C
48
F0
ENDCHAR
STARTCHAR char9650
ENCODING 9650
SWIDTH 313 0
DWIDTH 6 0
BBX 5 6 0 0
BITMAP
20
20
70
70
F8
F8
ENDCHAR
STARTCHAR char9651
ENCODING 9651
SWIDTH 313 0
DWIDTH 6 0
BBX 5 6 0 0
BITMAP
20
20
50
50
88
F8
ENDCHAR
STARTCHAR char9652
ENCODING 9652
SWIDTH 313 0
DWIDTH 6 0
BBX 5 3 0 0
BITMAP
20
70
F8
ENDCHAR
STARTCHAR char9653
ENCODING 9653
SWIDTH 313 0
DWIDTH 6 0
BBX 5 3 0 0
BITMAP
20
50
F8
ENDCHAR
STARTCHAR char9654
ENCODING 9654
SWIDTH 313 0
DWIDTH 6 0
BBX 5 9 0 -2
BITMAP
80
C0
E0
F0
F8
F0
E0
C0
80
ENDCHAR
STARTCHAR char9655
ENCODING 9655
SWIDTH 313 0
DWIDTH 6 0
BBX 5 9 0 -2
BITMAP
80
C0
A0
90
88
90
A0
C0
80
ENDCHAR
STARTCHAR char9656
ENCODING 9656
SWIDTH 313 0
DWIDTH 6 0
BBX 4 7 1 -1
BITMAP
80
C0
E0
F0
E0
C0
80
ENDCHAR
STARTCHAR char9657
ENCODING 9657
SWIDTH 313 0
DWIDTH 6 0
BBX 4 7 1 -1
BITMAP
80
C0
A0
90
A0
C0
80
ENDCHAR
STARTCHAR uni3041
ENCODING 12353
SWIDTH 1000 0
DWIDTH 12 0
BBX 6 7 3 -2
BITMAP
20
FC
20
78
AC
94
68
ENDCHAR
STARTCHAR uni3042
ENCODING 12354
SWIDTH 1000 0
DWIDTH 12 0
BBX 7 8 2 -1
BITMAP
20
FE
20
3C
66
AA
92
64
ENDCHAR
STARTCHAR uni3043
ENCODING 12355
SWIDTH 1000 0
DWIDTH 12 0
BBX 6 6 3 -2
BITMAP
88
84
84
84
90
60
ENDCHAR
STARTCHAR uni3044
ENCODING 12356
SWIDTH 1000 0
DWIDTH 12 0
BBX 6 7 3 -1
BITMAP
88
84
84
84
80
90
60
ENDCHAR
STARTCHAR uni3045
ENCODING 12357
SWIDTH 1000 0
DWIDTH 12 0
BBX 5 7 3 -2
BITMAP
60
00
70
88
08
10
20
ENDCHAR
STARTCHAR uni3046
ENCODING 12358
SWIDTH 1000 0
DWIDTH 12 0
BBX 6 8 2 -1
BITMAP
70
00
78
84
04
04
08
30
ENDCHAR
STARTCHAR uni3047
ENCODING 12359
SWIDTH 1000 0
DWIDTH 12 0
BBX 6 7 3 -2
BITMAP
60
00
F8
10
20
60
9C
ENDCHAR
STARTCHAR uni3048
ENCODING 12360
SWIDTH 1000 0
DWIDTH 12 0
BBX 7 8 2 -1
BITMAP
30
00
FC
08
10
30
50
8E
ENDCHAR
STARTCHAR uni3049
ENCODING 12361
SWIDTH 1000 0
DWIDTH 12 0
BBX 6 7 3 -2
BITMAP
28
F4
20
78
A4
A4
48
ENDCHAR
STARTCHAR uni304A
ENCODING 12362
SWIDTH 1000 0
DWIDTH 12 0
BBX 7 8 2 -1
BITMAP
24
FA
20
3C
62
A2
A2
44
ENDCHAR
STARTCHAR uni304B
ENCODING 12363
SWIDTH 1000 0
DWIDTH 12 0
BBX 7 8 2 -1
BITMAP
20
24
F2
2A
48
48
A8
10
ENDCHAR
STARTCHAR uni304C
ENCODING 12364
SWIDTH 1000 0
DWIDTH 12 0
BBX 10 10 2 -1
BITMAP
0080
0240
2100
2400
F200
2A00
4800
4800
A800
1000
ENDCHAR
STARTCHAR uni304D
ENCODING 12365
SWIDTH 1000 0
DWIDTH 12 0
BBX 6 8 3 -1
BITMAP
20
F8
10
7C
08
18
80
78
ENDCHAR
STARTCHAR uni304E
ENCODING 12366
SWIDTH 1000 0
DWIDTH 12 0
BBX 9 10 3 -1
BITMAP
0100
0480
2200
F800
1000
7C00
0800
1800
8000
7800
ENDCHAR
STARTCHAR uni304F
ENCODING 12367
SWIDTH 1000 0
DWIDTH 12 0
BBX 4 8 3 -1
BITMAP
10
20
40
80
80
40
20
10
ENDCHAR
STARTCHAR uni3050
ENCODING 12368
SWIDTH 1000 0
DWIDTH 12 0
BBX 9 10 3 -1
BITMAP
0100
0480
1200
2000
4000
8000
8000
4000
2000
1000
ENDCHAR
STARTCHAR uni3051
ENCODING 12369
SWIDTH 1000 0
DWIDTH 12 0
BBX 7 8 2 -1
BITMAP
04
84
BE
84
84
84
84
48
ENDCHAR
STARTCHAR uni3052
ENCODING 12370
SWIDTH 1000 0
DWIDTH 12 0
BBX 10 10 2 -1
BITMAP
0080
0240
0500
8400
BE00
8400
8400
8400
8400
4800
ENDCHAR
STARTCHAR uni3053
ENCODING 12371
SWIDTH 1000 0
DWIDTH 12 0
BBX 6 7 2 -1
BITMAP
78
0C
10
00
00
80
7C
ENDCHAR
STARTCHAR uni3054
ENCODING 12372
SWIDTH 1000 0
DWIDTH 12 0
BBX 10 10 2 -1
BITMAP
0080
0240
0100
7800
0C00
1000
0000
0000
8000
7C00
ENDCHAR
STARTCHAR uni3055
ENCODING 12373
SWIDTH 1000 0
DWIDTH 12 0
BBX 6 8 2 -1
BITMAP
20
FC
10
08
08
80
80
78
ENDCHAR
STARTCHAR uni3056
ENCODING 12374
SWIDTH 1000 0
DWIDTH 12 0
BBX 10 10 2 -1
BITMAP
0080
0240
2100
FC00
1000
0800
0800
8000
8000
7800
ENDCHAR
STARTCHAR uni3057
ENCODING 12375
SWIDTH 1000 0
DWIDTH 12 0
BBX 5 8 3 -1
BITMAP
80
80
80
80
80
80
88
70
ENDCHAR
STARTCHAR uni3058
ENCODING 12376
SWIDTH 1000 0
DWIDTH 12 0
BBX 7 9 3 -1
BITMAP
04
92
88
80
80
80
80
88
70
ENDCHAR
STARTCHAR uni3059
ENCODING 12377
SWIDTH 1000 0
DWIDTH 12 0
BBX 7 8 2 -1
BITMAP
08
FE
08
38
48
38
08
10
ENDCHAR
STARTCHAR uni305A
ENCODING 12378
SWIDTH 1000 0
DWIDTH 12 0
BBX 10 10 2 -1
BITMAP
0080
0240
0900
FE00
0800
3800
4800
3800
0800
1000
ENDCHAR
STARTCHAR uni305B
ENCODING 12379
SWIDTH 1000 0
DWIDTH 12 0
BBX 7 8 2 -1
BITMAP
44
44
FE
44
44
48
40
3E
ENDCHAR
STARTCHAR uni305C
ENCODING 12380
SWIDTH 1000 0
DWIDTH 12 0
BBX 10 10 2 -1
BITMAP
0080
0240
4500
4400
FE00
4400
4400
4800
4000
3E00
ENDCHAR
STARTCHAR uni305D
ENCODING 12381
SWIDTH 1000 0
DWIDTH 12 0
BBX 6 8 2 -1
BITMAP
78
10
20
FC
10
20
20
18
ENDCHAR
STARTCHAR uni305E
ENCODING 12382
SWIDTH 1000 0
DWIDTH 12 0
BBX 10 10 2 -1
BITMAP
0080
0240
7900
1000
2000
FC00
1000
2000
2000
1800
ENDCHAR
STARTCHAR uni305F
ENCODING 12383
SWIDTH 1000 0
DWIDTH 12 0
BBX 7 8 2 -1
BITMAP
20
F8
20
4E
40
80
90
8E
ENDCHAR
STARTCHAR uni3060
ENCODING 12384
SWIDTH 1000 0
DWIDTH 12 0
BBX 10 10 2 -1
BITMAP
0080
0240
2100
F800
2000
4E00
4000
8000
9000
8E00
ENDCHAR
STARTCHAR uni3061
ENCODING 12385
SWIDTH 1000 0
DWIDTH 12 0
BBX 6 8 2 -1
BITMAP
10
FC
20
40
78
84
04
38
ENDCHAR
STARTCHAR uni3062
ENCODING 12386
SWIDTH 1000 0
DWIDTH 12 0
BBX 10 10 2 -1
BITMAP
0080
0240
1100
FC00
2000
4000
7800
8400
0400
3800
ENDCHAR
STARTCHAR uni3063
ENCODING 12387
SWIDTH 1000 0
DWIDTH 12 0
BBX 5 5 3 -2
BITMAP
F0
08
08
10
60
ENDCHAR
STARTCHAR uni3064
ENCODING 12388
SWIDTH 1000 0
DWIDTH 12 0
BBX 7 6 2 -1
BITMAP
FC
02
02
02
04
38
ENDCHAR
STARTCHAR uni3065
ENCODING 12389
SWIDTH 1000 0
DWIDTH 12 0
BBX 10 10 2 -1
BITMAP
0080
0240
0100
0000
FC00
0200
0200
0200
0400
3800
ENDCHAR
STARTCHAR uni3066
ENCODING 12390
SWIDTH 1000 0
DWIDTH 12 0
BBX 7 7 2 -1
BITMAP
FE
08
10
20
20
20
1C
ENDCHAR
STARTCHAR uni3067
ENCODING 12391
SWIDTH 1000 0
DWIDTH 12 0
BBX 10 10 2 -1
BITMAP
0080
0240
0100
FE00
0800
1000
2000
2000
2000
1C00
ENDCHAR
STARTCHAR uni3068
ENCODING 12392
SWIDTH 1000 0
DWIDTH 12 0
BBX 6 8 2 -1
BITMAP
40
40
58
60
40
80
80
7C
ENDCHAR
STARTCHAR uni3069
ENCODING 12393
SWIDTH 1000 0
DWIDTH 12 0
BBX 10 10 2 -1
BITMAP
0080
0240
4100
4000
5800
6000
4000
8000
8000
7C00
ENDCHAR
STARTCHAR uni306A
ENCODING 12394
SWIDTH 1000 0
DWIDTH 12 0
BBX 7 8 2 -1
BITMAP
20
24
F2
48
88
38
4C
30
ENDCHAR
STARTCHAR uni306B
ENCODING 12395
SWIDTH 1000 0
DWIDTH 12 0
BBX 6 8 2 -1
BITMAP
BC
80
80
80
80
80
A0
9C
ENDCHAR
STARTCHAR uni306C
ENCODING 12396
SWIDTH 1000 0
DWIDTH 12 0
BBX 8 8 2 -1
BITMAP
08
28
3C
6A
92
AE
AA
4D
ENDCHAR
STARTCHAR uni306D
ENCODING 12397
SWIDTH 1000 0
DWIDTH 12 0
BBX 7 8 2 -1
BITMAP
20
20
EC
32
22
6E
AA
26
ENDCHAR
STARTCHAR uni306E
ENCODING 12398
SWIDTH 1000 0
DWIDTH 12 0
BBX 7 7 2 -1
BITMAP
38
54
92
92
92
92
64
ENDCHAR
STARTCHAR uni306F
ENCODING 12399
SWIDTH 1000 0
DWIDTH 12 0
BBX 7 8 2 -1
BITMAP
04
84
9E
84
84
9C
A6
98
ENDCHAR
STARTCHAR uni3070
ENCODING 12400
SWIDTH 1000 0
DWIDTH 12 0
BBX 10 10 2 -1
BITMAP
0080
0240
0500
8400
9E00
8400
8400
9C00
A600
9800
ENDCHAR
STARTCHAR uni3071
ENCODING 12401
SWIDTH 1000 0
DWIDTH 12 0
BBX 10 10 2 -1
BITMAP
0180
0240
0640
8580
9E00
8400
8400
9C00
A600
9800
ENDCHAR
STARTCHAR uni3072
ENCODING 12402
SWIDTH 1000 0
DWIDTH 12 0
BBX 7 8 2 -1
BITMAP
F0
24
46
84
84
84
88
70
ENDCHAR
STARTCHAR uni3073
ENCODING 12403
SWIDTH 1000 0
DWIDTH 12 0
BBX 10 10 2 -1
BITMAP
0080
0240
F100
2400
4600
8400
8400
8400
8800
7000
ENDCHAR
STARTCHAR uni3074
ENCODING 12404
SWIDTH 1000 0
DWIDTH 12 0
BBX 10 10 2 -1
BITMAP
0180
0240
F240
2580
4600
8400
8400
8400
8800
7000
ENDCHAR
STARTCHAR uni3075
ENCODING 12405
SWIDTH 1000 0
DWIDTH 12 0
BBX 7 8 2 -1
BITMAP
30
08
00
10
48
8A
8A
30
ENDCHAR
STARTCHAR uni3076
ENCODING 12406
SWIDTH 1000 0
DWIDTH 12 0
BBX 10 10 2 -1
BITMAP
0080
0240
3100
0800
0000
1000
4800
8A00
8A00
3000
ENDCHAR
STARTCHAR uni3077
ENCODING 12407
SWIDTH 1000 0
DWIDTH 12 0
BBX 10 10 2 -1
BITMAP
0180
0240
3240
0980
0000
1000
4800
8A00
8A00
3000
ENDCHAR
STARTCHAR uni3078
ENCODING 12408
SWIDTH 1000 0
DWIDTH 12 0
BBX 7 5 2 0
BITMAP
20
50
88
04
02
ENDCHAR
STARTCHAR uni3079
ENCODING 12409
SWIDTH 1000 0
DWIDTH 12 0
BBX 9 8 2 0
BITMAP
0100
0480
0200
2000
5000
8800
0400
0200
ENDCHAR
STARTCHAR uni307A
ENCODING 12410
SWIDTH 1000 0
DWIDTH 12 0
BBX 9 8 2 0
BITMAP
0300
0480
0480
2300
5000
8800
0400
0200
ENDCHAR
STARTCHAR uni307B
ENCODING 12411
SWIDTH 1000 0
DWIDTH 12 0
BBX 7 8 2 -1
BITMAP
BE
84
BE
84
9C
A4
A6
98
ENDCHAR
STARTCHAR uni307C
ENCODING 12412
SWIDTH 1000 0
DWIDTH 12 0
BBX 10 10 2 -1
BITMAP
0080
0240
BF00
8400
BE00
8400
9C00
A400
A600
9800
ENDCHAR
STARTCHAR uni307D
ENCODING 12413
SWIDTH 1000 0
DWIDTH 12 0
BBX 10 10 2 -1
BITMAP
0180
0240
BE40
8580
BE00
8400
9C00
A400
A600
9800
ENDCHAR
STARTCHAR uni307E
ENCODING 12414
SWIDTH 1000 0
DWIDTH 12 0
BBX 6 8 3 -1
BITMAP
10
FC
10
FC
10
78
94
60
ENDCHAR
STARTCHAR uni307F
ENCODING 12415
SWIDTH 1000 0
DWIDTH 12 0
BBX 7 8 2 -1
BITMAP
78
08
10
14
7C
A6
A4
48
ENDCHAR
STARTCHAR uni3080
ENCODING 12416
SWIDTH 1000 0
DWIDTH 12 0
BBX 7 8 2 -1
BITMAP
20
F4
22
20
60
A2
E2
3C
ENDCHAR
STARTCHAR uni3081
ENCODING 12417
SWIDTH 1000 0
DWIDTH 12 0
BBX 7 8 2 -1
BITMAP
04
44
5C
66
AA
AA
92
64
ENDCHAR
STARTCHAR uni3082
ENCODING 12418
SWIDTH 1000 0
DWIDTH 12 0
BBX 6 8 2 -1
BITMAP
40
40
F0
40
F0
40
44
38
ENDCHAR
STARTCHAR uni3083
ENCODING 12419
SWIDTH 1000 0
DWIDTH 12 0
BBX 6 7 3 -2
BITMAP
10
98
64
C4
28
20
10
ENDCHAR
STARTCHAR uni3084
ENCODING 12420
SWIDTH 1000 0
DWIDTH 12 0
BBX 7 8 2 -1
BITMAP
10
9C
62
C2
2C
20
10
10
ENDCHAR
STARTCHAR uni3085
ENCODING 12421
SWIDTH 1000 0
DWIDTH 12 0
BBX 6 7 3 -2
BITMAP
10
B8
D4
94
94
38
20
ENDCHAR
STARTCHAR uni3086
ENCODING 12422
SWIDTH 1000 0
DWIDTH 12 0
BBX 7 8 2 -1
BITMAP
08
BC
CA
8A
8A
AA
1C
30
ENDCHAR
STARTCHAR uni3087
ENCODING 12423
SWIDTH 1000 0
DWIDTH 12 0
BBX 5 7 3 -2
BITMAP
20
38
20
20
60
B0
48
ENDCHAR
STARTCHAR uni3088
ENCODING 12424
SWIDTH 1000 0
DWIDTH 12 0
BBX 7 8 2 -1
BITMAP
10
10
1E
10
10
78
94
62
ENDCHAR
STARTCHAR uni3089
ENCODING 12425
SWIDTH 1000 0
DWIDTH 12 0
BBX 6 8 3 -1
BITMAP
60
10
80
B8
C4
84
08
30
ENDCHAR
STARTCHAR uni308A
ENCODING 12426
SWIDTH 1000 0
DWIDTH 12 0
BBX 5 8 3 -1
BITMAP
88
88
88
88
48
08
10
20
ENDCHAR
STARTCHAR uni308B
ENCODING 12427
SWIDTH 1000 0
DWIDTH 12 0
BBX 7 8 2 -1
BITMAP
7C
18
20
7C
82
32
4A
3C
ENDCHAR
STARTCHAR uni308C
ENCODING 12428
SWIDTH 1000 0
DWIDTH 12 0
BBX 7 8 2 -1
BITMAP
20
20
EC
32
22
64
A4
22
ENDCHAR
STARTCHAR uni308D
ENCODING 12429
SWIDTH 1000 0
DWIDTH 12 0
BBX 7 8 2 -1
BITMAP
7C
18
20
7C
82
02
04
38
ENDCHAR
STARTCHAR uni308E
ENCODING 12430
SWIDTH 1000 0
DWIDTH 12 0
BBX 6 7 3 -2
BITMAP
40
40
D8
64
44
C4
48
ENDCHAR
STARTCHAR uni308F
ENCODING 12431
SWIDTH 1000 0
DWIDTH 12 0
BBX 7 8 2 -1
BITMAP
20
20
EC
32
22
62
A2
2C
ENDCHAR
STARTCHAR uni3090
ENCODING 12432
SWIDTH 1000 0
DWIDTH 12 0
BBX 7 8 2 -1
BITMAP
78
08
38
54
92
A6
AA
44
ENDCHAR
STARTCHAR uni3091
ENCODING 12433
SWIDTH 1000 0
DWIDTH 12 0
BBX 7 8 2 -1
BITMAP
78
10
78
44
A4
78
EC
92
ENDCHAR
STARTCHAR uni3092
ENCODING 12434
SWIDTH 1000 0
DWIDTH 12 0
BBX 6 8 2 -1
BITMAP
20
F8
40
64
98
28
20
1C
ENDCHAR
STARTCHAR uni3093
ENCODING 12435
SWIDTH 1000 0
DWIDTH 12 0
BBX 7 8 2 -1
BITMAP
10
10
20
20
70
4A
8A
84
ENDCHAR
STARTCHAR uni3094
ENCODING 12436
SWIDTH 1000 0
DWIDTH 12 0
BBX 10 10 2 -1
BITMAP
0080
0240
7100
0000
7800
8400
0400
0400
0800
3000
ENDCHAR
STARTCHAR uni3095
ENCODING 12437
SWIDTH 1000 0
DWIDTH 12 0
BBX 6 7 3 -2
BITMAP
28
24
F4
48
48
A8
10
ENDCHAR
STARTCHAR uni3096
ENCODING 12438
SWIDTH 1000 0
DWIDTH 12 0
BBX 6 7 3 -2
BITMAP
08
88
BC
88
88
88
50
ENDCHAR
STARTCHAR uni3099
ENCODING 12441
SWIDTH 0 0
DWIDTH 0 0
BBX 1 1 0 0
BITMAP
00
ENDCHAR
STARTCHAR uni309A
ENCODING 12442
SWIDTH 0 0
DWIDTH 0 0
BBX 1 1 0 0
BITMAP
00
ENDCHAR
STARTCHAR uni30A1
ENCODING 12449
SWIDTH 1000 0
DWIDTH 12 0
BBX 6 6 3 -2
BITMAP
FC
04
24
28
20
40
ENDCHAR
STARTCHAR uni30A2
ENCODING 12450
SWIDTH 1000 0
DWIDTH 12 0
BBX 7 7 2 -1
BITMAP
FE
02
12
14
10
10
20
ENDCHAR
STARTCHAR uni30A3
ENCODING 12451
SWIDTH 1000 0
DWIDTH 12 0
BBX 5 6 4 -2
BITMAP
08
30
E0
20
20
20
ENDCHAR
STARTCHAR uni30A4
ENCODING 12452
SWIDTH 1000 0
DWIDTH 12 0
BBX 6 7 3 -1
BITMAP
0C
18
30
D0
10
10
10
ENDCHAR
STARTCHAR uni30A5
ENCODING 12453
SWIDTH 1000 0
DWIDTH 12 0
BBX 5 7 3 -2
BITMAP
20
F8
88
08
08
10
60
ENDCHAR
STARTCHAR uni30A6
ENCODING 12454
SWIDTH 1000 0
DWIDTH 12 0
BBX 7 8 2 -1
BITMAP
10
FE
82
02
02
02
04
38
ENDCHAR
STARTCHAR uni30A8
ENCODING 12456
SWIDTH 1000 0
DWIDTH 12 0
BBX 7 6 2 -1
BITMAP
7C
10
10
10
10
FE
ENDCHAR
STARTCHAR uni30AA
ENCODING 12458
SWIDTH 1000 0
DWIDTH 12 0
BBX 7 8 2 -1
BITMAP
04
FE
0C
0C
34
C4
0C
04
ENDCHAR
STARTCHAR uni30AB
ENCODING 12459
SWIDTH 1000 0
DWIDTH 12 0
BBX 6 7 3 -1
BITMAP
20
FC
24
24
44
44
88
ENDCHAR
STARTCHAR uni30AC
ENCODING 12460
SWIDTH 1000 0
DWIDTH 12 0
BBX 9 10 3 -1
BITMAP
0100
0480
0200
2000
FC00
2400
2400
4400
4400
8800
ENDCHAR
STARTCHAR uni30AD
ENCODING 12461
SWIDTH 1000 0
DWIDTH 12 0
BBX 7 8 2 -1
BITMAP
20
3E
F0
10
1E
F8
08
08
ENDCHAR
STARTCHAR uni30AE
ENCODING 12462
SWIDTH 1000 0
DWIDTH 12 0
BBX 10 10 2 -1
BITMAP
0080
0240
2100
3E00
F000
1000
1E00
F800
0800
0800
ENDCHAR
STARTCHAR uni30AF
ENCODING 12463
SWIDTH 1000 0
DWIDTH 12 0
BBX 6 8 2 -1
BITMAP
40
7C
44
84
04
08
10
60
ENDCHAR
STARTCHAR uni30B0
ENCODING 12464
SWIDTH 1000 0
DWIDTH 12 0
BBX 10 10 2 -1
BITMAP
0080
0240
4100
7C00
4400
8400
0400
0800
1000
6000
ENDCHAR
STARTCHAR uni30B1
ENCODING 12465
SWIDTH 1000 0
DWIDTH 12 0
BBX 7 8 2 -1
BITMAP
20
20
7E
48
88
08
10
20
ENDCHAR
STARTCHAR uni30B2
ENCODING 12466
SWIDTH 1000 0
DWIDTH 12 0
BBX 10 10 2 -1
BITMAP
0080
0240
2100
2000
7E00
4800
8800
0800
1000
2000
ENDCHAR
STARTCHAR uni30B3
ENCODING 12467
SWIDTH 1000 0
DWIDTH 12 0
BBX 6 6 3 -1
BITMAP
FC
04
04
04
04
FC
ENDCHAR
STARTCHAR uni30B4
ENCODING 12468
SWIDTH 1000 0
DWIDTH 12 0
BBX 9 10 3 -1
BITMAP
0100
0480
0200
0000
FC00
0400
0400
0400
0400
FC00
ENDCHAR
STARTCHAR uni30B5
ENCODING 12469
SWIDTH 1000 0
DWIDTH 12 0
BBX 8 8 1 -1
BITMAP
24
24
FF
24
24
04
08
10
ENDCHAR
STARTCHAR uni30B6
ENCODING 12470
SWIDTH 1000 0
DWIDTH 12 0
BBX 11 10 1 -1
BITMAP
0040
0120
2480
2400
FF00
2400
2400
0400
0800
1000
ENDCHAR
STARTCHAR uni30B7
ENCODING 12471
SWIDTH 1000 0
DWIDTH 12 0
BBX 6 6 3 -1
BITMAP
C4
04
C4
08
10
E0
ENDCHAR
STARTCHAR uni30B8
ENCODING 12472
SWIDTH 1000 0
DWIDTH 12 0
BBX 9 10 3 -1
BITMAP
0100
0480
0200
0000
C400
0400
C400
0800
1000
E000
ENDCHAR
STARTCHAR uni30B9
ENCODING 12473
SWIDTH 1000 0
DWIDTH 12 0
BBX 6 7 3 -1
BITMAP
F8
08
08
10
30
48
84
ENDCHAR
STARTCHAR uni30BA
ENCODING 12474
SWIDTH 1000 0
DWIDTH 12 0
BBX 9 10 3 -1
BITMAP
0100
0480
0200
F800
0800
0800
1000
3000
4800
8400
ENDCHAR
STARTCHAR uni30BB
ENCODING 12475
SWIDTH 1000 0
DWIDTH 12 0
BBX 7 7 2 -1
BITMAP
40
4E
72
C4
40
42
3C
ENDCHAR
STARTCHAR uni30BC
ENCODING 12476
SWIDTH 1000 0
DWIDTH 12 0
BBX 10 10 2 -1
BITMAP
0080
0240
0100
4000
4E00
7200
C400
4000
4200
3C00
ENDCHAR
STARTCHAR uni30BD
ENCODING 12477
SWIDTH 1000 0
DWIDTH 12 0
BBX 6 7 2 -1
BITMAP
84
44
44
08
08
10
60
ENDCHAR
STARTCHAR uni30BE
ENCODING 12478
SWIDTH 1000 0
DWIDTH 12 0
BBX 10 10 2 -1
BITMAP
0080
0240
0100
8400
4400
4400
0800
0800
1000
6000
ENDCHAR
STARTCHAR uni30BF
ENCODING 12479
SWIDTH 1000 0
DWIDTH 12 0
BBX 6 8 2 -1
BITMAP
40
7C
44
84
34
08
10
60
ENDCHAR
STARTCHAR uni30C0
ENCODING 12480
SWIDTH 1000 0
DWIDTH 12 0
BBX 10 10 2 -1
BITMAP
0080
0240
4100
7C00
4400
8400
3400
0800
1000
6000
ENDCHAR
STARTCHAR uni30C1
ENCODING 12481
SWIDTH 1000 0
DWIDTH 12 0
BBX 7 8 2 -1
BITMAP
0C
70
10
FE
10
10
10
20
ENDCHAR
STARTCHAR uni30C2
ENCODING 12482
SWIDTH 1000 0
DWIDTH 12 0
BBX 10 10 2 -1
BITMAP
0080
0240
0D00
7000
1000
FE00
1000
1000
1000
2000
ENDCHAR
STARTCHAR uni30C3
ENCODING 12483
SWIDTH 1000 0
DWIDTH 12 0
BBX 5 5 3 -2
BITMAP
A8
A8
08
10
60
ENDCHAR
STARTCHAR uni30C4
ENCODING 12484
SWIDTH 1000 0
DWIDTH 12 0
BBX 6 7 2 -1
BITMAP
04
A4
A4
08
08
10
60
ENDCHAR
STARTCHAR uni30C5
ENCODING 12485
SWIDTH 1000 0
DWIDTH 12 0
BBX 10 10 2 -1
BITMAP
0080
0240
0100
0400
A400
A400
0800
0800
1000
6000
ENDCHAR
STARTCHAR uni30C6
ENCODING 12486
SWIDTH 1000 0
DWIDTH 12 0
BBX 7 7 2 -1
BITMAP
7C
00
FE
10
10
10
20
ENDCHAR
STARTCHAR uni30C7
ENCODING 12487
SWIDTH 1000 0
DWIDTH 12 0
BBX 10 10 2 -1
BITMAP
0080
0240
0100
7C00
0000
FE00
1000
1000
1000
2000
ENDCHAR
STARTCHAR uni30C8
ENCODING 12488
SWIDTH 1000 0
DWIDTH 12 0
BBX 4 7 4 -1
BITMAP
80
80
80
C0
B0
80
80
ENDCHAR
STARTCHAR uni30C9
ENCODING 12489
SWIDTH 1000 0
DWIDTH 12 0
BBX 6 8 4 -1
BITMAP
08
A4
90
80
C0
B0
80
80
ENDCHAR
STARTCHAR uni30CA
ENCODING 12490
SWIDTH 1000 0
DWIDTH 12 0
BBX 7 7 2 -1
BITMAP
08
FE
08
08
08
10
60
ENDCHAR
STARTCHAR uni30CB
ENCODING 12491
SWIDTH 1000 0
DWIDTH 12 0
BBX 8 6 2 -1
BITMAP
7E
00
00
00
00
FF
ENDCHAR
STARTCHAR uni30CC
ENCODING 12492
SWIDTH 1000 0
DWIDTH 12 0
BBX 6 7 3 -1
BITMAP
F8
08
08
50
30
28
C4
ENDCHAR
STARTCHAR uni30CD
ENCODING 12493
SWIDTH 1000 0
DWIDTH 12 0
BBX 7 7 2 -1
BITMAP
10
7C
04
08
34
D2
10
ENDCHAR
STARTCHAR uni30CE
ENCODING 12494
SWIDTH 1000 0
DWIDTH 12 0
BBX 4 7 4 -1
BITMAP
10
10
10
20
20
40
80
ENDCHAR
STARTCHAR uni30CF
ENCODING 12495
SWIDTH 1000 0
DWIDTH 12 0
BBX 7 7 2 -1
BITMAP
08
08
44
44
82
82
02
ENDCHAR
STARTCHAR uni30D0
ENCODING 12496
SWIDTH 1000 0
DWIDTH 12 0
BBX 10 10 2 -1
BITMAP
0080
0240
0100
0800
0800
4400
4400
8200
8200
0200
ENDCHAR
STARTCHAR uni30D1
ENCODING 12497
SWIDTH 1000 0
DWIDTH 12 0
BBX 10 10 2 -1
BITMAP
0180
0240
0240
0980
0800
4400
4400
8200
8200
0200
ENDCHAR
STARTCHAR uni30D3
ENCODING 12499
SWIDTH 1000 0
DWIDTH 12 0
BBX 9 10 3 -1
BITMAP
0100
0480
0200
8000
8000
F800
8000
8000
8000
F800
ENDCHAR
STARTCHAR uni30D4
ENCODING 12500
SWIDTH 1000 0
DWIDTH 12 0
BBX 9 10 3 -1
BITMAP
0300
0480
0480
8300
8000
F800
8000
8000
8000
F800
ENDCHAR
STARTCHAR uni30D5
ENCODING 12501
SWIDTH 1000 0
DWIDTH 12 0
BBX 6 7 2 -1
BITMAP
FC
04
04
04
08
10
60
ENDCHAR
STARTCHAR uni30D6
ENCODING 12502
SWIDTH 1000 0
DWIDTH 12 0
BBX 10 10 2 -1
BITMAP
0080
0240
0100
FC00
0400
0400
0400
0800
1000
6000
ENDCHAR
STARTCHAR uni30D7
ENCODING 12503
SWIDTH 1000 0
DWIDTH 12 0
BBX 10 10 2 -1
BITMAP
0180
0240
0240
FD80
0400
0400
0400
0800
1000
6000
ENDCHAR
STARTCHAR uni30D8
ENCODING 12504
SWIDTH 1000 0
DWIDTH 12 0
BBX 7 5 2 0
BITMAP
20
50
88
04
02
ENDCHAR
STARTCHAR uni30D9
ENCODING 12505
SWIDTH 1000 0
DWIDTH 12 0
BBX 9 8 2 0
BITMAP
0100
0480
0200
2000
5000
8800
0400
0200
ENDCHAR
STARTCHAR uni30DA
ENCODING 12506
SWIDTH 1000 0
DWIDTH 12 0
BBX 9 8 2 0
BITMAP
0300
0480
0480
2300
5000
8800
0400
0200
ENDCHAR
STARTCHAR .notdef
ENCODING 57345
SWIDTH 313 0
DWIDTH 6 0
BBX 6 12 0 -3
BITMAP
FC
84
84
84
84
84
84
84
84
84
84
FC
ENDCHAR
STARTCHAR uniFF21
ENCODING 65313
SWIDTH 1000 0
DWIDTH 12 0
BBX 9 11 1 -2
BITMAP
0800
0800
1400
1400
2200
2200
3E00
4100
4100
8080
8080
ENDCHAR
STARTCHAR uniFF22
ENCODING 65314
SWIDTH 1000 0
DWIDTH 12 0
BBX 9 11 1 -2
BITMAP
FF00
8080
8080
8080
8080
FF00
8080
8080
8080
8080
FF00
ENDCHAR
STARTCHAR uniFF23
ENCODING 65315
SWIDTH 1000 0
DWIDTH 12 0
BBX 9 11 1 -2
BITMAP
3E00
4100
8080
8000
8000
8000
8000
8000
8080
4100
3E00
ENDCHAR
STARTCHAR uniFF24
ENCODING 65316
SWIDTH 1000 0
DWIDTH 12 0
BBX 9 11 1 -2
BITMAP
FC00
8200
8100
8080
8080
8080
8080
8080
8100
8200
FC00
ENDCHAR
STARTCHAR uniFF25
ENCODING 65317
SWIDTH 1000 0
DWIDTH 12 0
BBX 9 11 1 -2
BITMAP
FF80
8000
8000
8000
8000
FE00
8000
8000
8000
8000
FF80
ENDCHAR
STARTCHAR uniFF26
ENCODING 65318
SWIDTH 1000 0
DWIDTH 12 0
BBX 9 11 1 -2
BITMAP
FF80
8000
8000
8000
8000
FE00
8000
8000
8000
8000
8000
ENDCHAR
STARTCHAR uniFF27
ENCODING 65319
SWIDTH 1000 0
DWIDTH 12 0
BBX 9 11 1 -2
BITMAP
3E00
4100
8080
8000
8000
8780
8080
8080
8080
4080
3F80
ENDCHAR
STARTCHAR uniFF28
ENCODING 65320
SWIDTH 1000 0
DWIDTH 12 0
BBX 9 11 1 -2
BITMAP
8080
8080
8080
8080
8080
FF80
8080
8080
8080
8080
8080
ENDCHAR
STARTCHAR uniFF29
ENCODING 65321
SWIDTH 1000 0
DWIDTH 12 0
BBX 5 11 3 -2
BITMAP
F8
20
20
20
20
20
20
20
20
20
F8
ENDCHAR
STARTCHAR uniFF2A
ENCODING 65322
SWIDTH 1000 0
DWIDTH 12 0
BBX 9 11 1 -2
BITMAP
0F80
0080
0080
0080
0080
0080
0080
0080
0080
8100
7E00
ENDCHAR
STARTCHAR uniFF2B
ENCODING 65323
SWIDTH 1000 0
DWIDTH 12 0
BBX 7 11 2 -2
BITMAP
82
84
88
90
A0
C0
A0
90
88
84
82
ENDCHAR
STARTCHAR uniFF2C
ENCODING 65324
SWIDTH 1000 0
DWIDTH 12 0
BBX 9 11 1 -2
BITMAP
8000
8000
8000
8000
8000
8000
8000
8000
8000
8000
FF80
ENDCHAR
STARTCHAR uniFF2D
ENCODING 65325
SWIDTH 1000 0
DWIDTH 12 0
BBX 9 11 1 -2
BITMAP
8080
8080
C180
C180
A280
A280
9480
9480
8880
8880
8080
ENDCHAR
STARTCHAR uniFF2E
ENCODING 65326
SWIDTH 1000 0
DWIDTH 12 0
BBX 7 11 2 -2
BITMAP
C2
C2
A2
A2
92
92
92
8A
8A
86
86
ENDCHAR
STARTCHAR uniFF2F
ENCODING 65327
SWIDTH 1000 0
DWIDTH 12 0
BBX 9 11 1 -2
BITMAP
3E00
4100
8080
8080
8080
8080
8080
8080
8080
4100
3E00
ENDCHAR
STARTCHAR uniFF30
ENCODING 65328
SWIDTH 1000 0
DWIDTH 12 0
BBX 9 11 1 -2
BITMAP
FE00
8100
8080
8080
8080
8100
FE00
8000
8000
8000
8000
ENDCHAR
STARTCHAR uniFF31
ENCODING 65329
SWIDTH 1000 0
DWIDTH 12 0
BBX 9 11 1 -2
BITMAP
3E00
4100
8080
8080
8080
8080
8080
8080
8280
4100
3E80
ENDCHAR
STARTCHAR uniFF32
ENCODING 65330
SWIDTH 1000 0
DWIDTH 12 0
BBX 9 11 1 -2
BITMAP
FE00
8100
8080
8080
8080
8100
FE00
8100
8080
8080
8080
ENDCHAR
STARTCHAR uniFF33
ENCODING 65331
SWIDTH 1000 0
DWIDTH 12 0
BBX 9 11 1 -2
BITMAP
3E00
4100
8080
8000
4000
3E00
0100
0080
8080
4100
3E00
ENDCHAR
STARTCHAR uniFF34
ENCODING 65332
SWIDTH 1000 0
DWIDTH 12 0
BBX 9 11 1 -2
BITMAP
FF80
0800
0800
0800
0800
0800
0800
0800
0800
0800
0800
ENDCHAR
STARTCHAR uniFF35
ENCODING 65333
SWIDTH 1000 0
DWIDTH 12 0
BBX 9 11 1 -2
BITMAP
8080
8080
8080
8080
8080
8080
8080
8080
8080
4100
3E00
ENDCHAR
STARTCHAR uniFF36
ENCODING 65334
SWIDTH 1000 0
DWIDTH 12 0
BBX 9 11 1 -2
BITMAP
8080
8080
8080
4100
4100
2200
2200
1400
1400
0800
0800
ENDCHAR
STARTCHAR uniFF37
ENCODING 65335
SWIDTH 1000 0
DWIDTH 12 0
BBX 9 11 1 -2
BITMAP
8080
8080
8880
8880
8880
5500
5500
5500
2200
2200
2200
ENDCHAR
STARTCHAR uniFF38
ENCODING 65336
SWIDTH 1000 0
DWIDTH 12 0
BBX 9 11 1 -2
BITMAP
8080
8080
4100
2200
1400
0800
1400
2200
4100
8080
8080
ENDCHAR
STARTCHAR uniFF39
ENCODING 65337
SWIDTH 1000 0
DWIDTH 12 0
BBX 9 11 1 -2
BITMAP
8080
8080
8080
8080
8080
4100
3E00
0800
0800
0800
0800
ENDCHAR
STARTCHAR uniFF3A
ENCODING 65338
SWIDTH 1000 0
DWIDTH 12 0
BBX 9 11 1 -2
BITMAP
FF80
0080
0100
0200
0400
0800
1000
2000
4000
8000
FF80
ENDCHAR
STARTCHAR char65532
ENCODING 65532
SWIDTH 313 0
DWIDTH 6 0
BBX 5 12 0 -3
BITMAP
70
88
88
70
00
F8
A8
A8
50
80
88
78
ENDCHAR
STARTCHAR char65533
ENCODING 65533
SWIDTH 313 0
DWIDTH 6 0
BBX 5 9 0 0
BITMAP
20
50
A8
E8
D8
F8
D8
70
20
ENDCHAR
ENDFONT
